<svg xmlns="http://www.w3.org/2000/svg" xml:space="preserve" style="fill-rule:evenodd;clip-rule:evenodd;stroke-miterlimit:10" viewBox="0 0 576 64"><circle cx=".5" r=".5" style="fill:url(#a)" transform="matrix(0 40.1497 40.1497 0 479.711 11.926)"/><path d="M0-41.012c-5.478-5.478-12.76-8.494-20.506-8.494s-15.029 3.016-20.506 8.494l5.367 5.368a21.269 21.269 0 0 1 15.139-6.271 21.267 21.267 0 0 1 15.138 6.271 21.266 21.266 0 0 1 6.27 15.138 21.264 21.264 0 0 1-6.27 15.138A21.266 21.266 0 0 1-20.506.902a21.256 21.256 0 0 1-11.962-3.648l7.028-3.164-20.269-14.596-2.509 24.852L-40.231.75c5.379 5.001 12.34 7.744 19.725 7.744C-12.76 8.494-5.478 5.477 0 0c5.478-5.478 8.494-12.76 8.494-20.506S5.478-35.535 0-41.012Z" style="fill:none;fill-rule:nonzero;stroke:#000;stroke-width:5.82px" transform="translate(500.218 52.506)"/><clipPath id="b"><path d="m459.206 11.494 5.367 5.368a21.273 21.273 0 0 1 15.139-6.271 21.272 21.272 0 0 1 15.138 6.271A21.27 21.27 0 0 1 501.12 32a21.268 21.268 0 0 1-6.27 15.138 21.271 21.271 0 0 1-15.138 6.27 21.253 21.253 0 0 1-11.962-3.648l7.027-3.164L454.509 32 452 56.852l7.986-3.596C465.367 58.257 472.327 61 479.712 61c7.746 0 15.028-3.016 20.506-8.494 5.478-5.477 8.493-12.76 8.493-20.506s-3.015-15.029-8.493-20.506S487.458 3 479.712 3c-7.747 0-15.029 3.017-20.506 8.494Z" clip-rule="nonzero"/></clipPath><g clip-path="url(#b)"><path d="M-50.896 43.93h46.169l22.722-23.081L-5.451-2.233-50.896 43.93Z" style="fill:#009600;fill-rule:nonzero" transform="scale(-1 1) rotate(-44.552 -256.526 617.105)"/><path d="M-48.585-16.194h32.391l32.388-32.391h-64.779v32.391Z" style="fill:#c80000;fill-rule:nonzero" transform="matrix(0 1 1 0 495.906 48.195)"/><path d="M0 33.655-47.403 0l-47.404 33.655H0Z" style="fill:#ffce45;fill-rule:nonzero" transform="translate(527.115 32)"/><path d="M.838.401.726.285A.355.355 0 0 0 .831.036a.311.311 0 0 0-.333-.323.293.293 0 0 0-.228.09C.204-.13.171-.086.171.008c0 .072-.006.116.034.173L.263.089l.28.38-.494.059.068-.161A.475.475 0 0 1 .002.04a.516.516 0 0 1 .495-.513.506.506 0 0 1 .348.148c.09.089.151.232.152.36a.566.566 0 0 1-.159.366Z" style="fill:url(#c);fill-rule:nonzero" transform="scale(-60.81423 60.81423) rotate(-89.701 -3.449 4.497)"/></g><path d="M0 52.267V27.733h9.334L-21.6 0l-30.667 27.733h9.334v24.534H0Z" style="fill:#c8c8c8;fill-rule:nonzero" transform="translate(437.333 5.867)"/><path d="m0 12.267-9.066-5.066v9.866L0 12.267Zm9.067-6.133v12.267c0 1.866-1.334 2.932-2.933 2.932h-24.533c-1.868 0-2.934-1.333-2.934-2.932V6.134c0-1.867 1.333-3.2 2.934-3.2H6.134c1.866 0 2.933 1.6 2.933 3.2m-6.133-15.2h-18.133v2.933H3.2c-.266 0-.266-2.933-.266-2.933M6.134 0h-24.533v-2.933H6.134V0Z" style="fill:#7f0000;fill-rule:nonzero" transform="translate(421.866 28.533)"/><path d="M0-.484c0-.044.14-.029.14-.068v-.04c0-.029.023-.053.052-.053h.756c.029 0 .052.024.052.053V.592a.052.052 0 0 1-.052.053H.192A.052.052 0 0 1 .14.592V.097C.14.059 0 .077 0 .023v-.507Z" style="fill:url(#d);fill-rule:nonzero;stroke:#a7a9ac;stroke-width:.03px;stroke-linejoin:round;stroke-miterlimit:2" transform="matrix(0 46.5 46.5 0 352.005 8.75)"/><path d="M0 0h15.41" style="fill:none;fill-rule:nonzero;stroke:#000;stroke-width:1.5px" transform="translate(330.99 12.445)"/><path d="M-.305-.735h2.082" style="fill:none;fill-rule:nonzero;stroke:#939598;stroke-width:.5px" transform="scale(1 -1) rotate(-44.981 161.763 -429.688)"/><path d="M-1.777-.735H.305" style="fill:none;fill-rule:nonzero;stroke:#939598;stroke-width:.5px" transform="scale(-1 1) rotate(44.981 -191.822 -417.243)"/><path d="M0 14.581c13.506.276 13.858 5.871 18.295 7.298 3.337 1.073 7.391-4.647 8.04-6.817C28.82 6.757 29.107-.405 24.362-8.371c.53 13.283-.616 15.707-6.363 19.279-2.485 1.544-5.809-1.725-8.69-1.223-3.455.6-7.871 3.006-9.309 4.896" style="fill:#73d6ed;fill-rule:nonzero" transform="translate(335.956 28.43)"/><path d="M356.144 45.666c-.312 1.196-.688 1.025-1.062 1.003.452.423.561.684.371 1.688.362-.635.323-1.057 1.113-.796-.544-.485-.671-.649-.422-1.895Zm-5.246-3.731c-.248.952-.547.815-.845.798.36.337.447.545.295 1.345.288-.507.258-.843.887-.635-.434-.386-.535-.517-.337-1.508Zm9.259-1.754c-.269 1.028-.592.882-.913.862.388.365.482.589.318 1.452.312-.546.279-.91.958-.685-.468-.417-.577-.558-.363-1.629Zm-16.756-.289c-.281 1.074-.618.921-.954.9.405.38.504.616.333 1.517.325-.571.291-.95 1-.716-.489-.435-.603-.582-.379-1.701Zm17.741-6.048c-.312 1.196-.688 1.025-1.062 1.003.452.423.561.684.371 1.688.362-.636.323-1.057 1.113-.796-.544-.486-.671-.649-.422-1.895Zm.799-7.474c-.312 1.196-.688 1.025-1.062 1.003.451.423.561.684.371 1.688.362-.636.323-1.058 1.113-.797-.544-.484-.671-.648-.422-1.894Z" style="fill:#fffffe;fill-rule:nonzero"/><path d="M-5.247 8.773H14.67" style="fill:none;fill-rule:nonzero;stroke:#94c1dd;stroke-width:.54px;stroke-miterlimit:4" transform="scale(1 -1) rotate(61.762 215.114 271.974)"/><path d="M-.995 1.64h3.697" style="fill:none;fill-rule:nonzero;stroke:#2385be;stroke-width:.81px;stroke-miterlimit:4" transform="scale(1 -1) rotate(62.499 202.068 275.338)"/><path d="m0-12.312-9.376 8.396L3.022-5.759-7.31-11.445-2.232 0 0-12.312Z" style="fill:#c3e2f4;fill-rule:nonzero" transform="translate(357 32.788)"/><path d="m0-6.674-5.082 4.551 6.721-.999-5.601-3.082L-1.21 0 0-6.674Z" style="fill:#94c1dd;fill-rule:nonzero" transform="translate(355.591 29.665)"/><path d="M0 14.985c.263-1.804.429-3.649.675-5.516L3.397.404 16.054 0l3.356 2.783c-.684 1.381-.921 4.264-1.203 7.568-.117 1.37-.157 2.866-.149 4.407" style="fill:#e6effc;fill-rule:nonzero;stroke:#9cbddb;stroke-width:.87px;stroke-miterlimit:4" transform="translate(267.762 50.3)"/><path d="M9.531-4.822C8.058 1.19 6.438 6.769-.552 18.333-6.35 27.924-.673 40.567 9.531 45.202c10.204 4.635 22.784.353 26.869-10.083 4.101-10.48.443-14.298-4.651-18.649" style="fill:#e6effc;fill-rule:nonzero" transform="scale(1 -1) rotate(-20.624 -9.54 -743.88)"/><path d="M0 48.572c.596-4.608.848-9.23.517-13.854a87.276 87.276 0 0 0-.735-6.909 114.054 114.054 0 0 0-.544-3.435c-.189-1.134-.443-2.283-.535-3.489-.434-4.798 1.475-9.608 4.646-13.126C6.517 4.211 10.859 1.751 15.522.84c4.665-.944 9.63-.217 13.854 1.961 4.222 2.168 7.735 5.795 9.53 10.229.917 2.201 1.355 4.593 1.381 6.969.021 2.347-.139 4.74-.842 7.038-.658 2.297-2.076 4.456-4.058 5.823-1.966 1.388-4.222 2.144-6.46 2.771 2.119-.963 4.285-1.878 6.058-3.301 1.781-1.411 3.002-3.371 3.625-5.545.638-2.172.806-4.484.799-6.779-.015-2.276-.438-4.546-1.311-6.647-1.709-4.225-5.071-7.702-9.12-9.781-4.054-2.09-8.813-2.787-13.287-1.882-4.474.873-8.657 3.243-11.69 6.643C.963 11.714-.838 16.276-.427 20.815c.083 1.118.33 2.25.526 3.41.2 1.151.381 2.305.547 3.461.336 2.313.59 4.64.742 6.977.336 4.671.078 9.39-.522 14.013L0 48.572Z" style="fill:#9cbddb;fill-rule:nonzero" transform="translate(267.996 11.172)"/><path d="M0-16.466c-.227 3.715 1.964 4.534 1.935 5.852C1.812-5.248-9.424 0-23.463-2.975" style="fill:#e6effc;fill-rule:nonzero" transform="translate(306.128 55.428)"/><path d="M0-13.924c-.106.338-.131.482-.047.83.068.339.152.676.243 1.012.187.673.424 1.334.642 2.036.107.351.208.716.266 1.108.069.4.029.817-.022 1.199-.127.782-.454 1.508-.879 2.142-.861 1.275-2.075 2.198-3.339 2.944-1.272.747-2.641 1.286-4.032 1.717-2.793.838-5.701 1.2-8.595 1.211-2.89-.021-5.798-.369-8.522-1.331 2.876.196 5.683.525 8.517.46 2.823-.035 5.657-.352 8.346-1.175 1.338-.415 2.651-.932 3.847-1.635 1.189-.7 2.306-1.567 3.053-2.677.37-.552.639-1.161.742-1.795.125-.643-.006-1.23-.216-1.913-.206-.664-.452-1.352-.649-2.057a15.987 15.987 0 0 1-.257-1.074 2.207 2.207 0 0 1-.064-.648c.018-.239.077-.442.138-.629l.828.275Z" style="fill:#9cbddb;fill-rule:nonzero" transform="translate(306.95 53.509)"/><clipPath id="e"><path d="M303.921 23.589c-2.358-.143-3.971 3.475-4.3 8.903-.328 5.427 1.485 10.068 3.843 10.21a2 2 0 0 0 .457-.027c.459-.458.898-.977 1.293-1.567.282-.425.543-.884.773-1.377a12.03 12.03 0 0 0 .61-1.569c.344-1.103.585-2.31.719-3.589.137-1.278.184-2.626.149-4.017a17.503 17.503 0 0 0-.656-4.204c-.1-.357-.212-.712-.337-1.066-.753-1.032-1.654-1.643-2.551-1.697" clip-rule="nonzero"/></clipPath><g clip-path="url(#e)"><path d="M-4.023-4.353c-5.437-.072-9.869 1.786-9.9 4.149-.032 2.363 4.464 4.511 9.9 4.583 5.438.071 9.164-1.27 9.195-3.634.031-2.363-3.757-5.026-9.195-5.098" style="fill:#fff;fill-rule:nonzero" transform="scale(1 -1) rotate(85.784 167.63 149.312)"/><clipPath id="f"><path d="M305.335 33.995c.03 4.372-1.663 7.853-3.783 7.775-2.119-.079-3.863-3.685-3.893-8.056-.03-4.372 1.663-7.852 3.782-7.775 2.121.079 3.864 3.686 3.894 8.056Z" clip-rule="nonzero"/></clipPath><g clip-path="url(#f)"><path d="M.445-.267c-.304-.013-.549.096-.549.243s.246.278.549.291C.748.28.994.171.994.024S.748-.254.445-.267Z" style="fill:url(#g);fill-rule:nonzero" transform="scale(14.40034 -14.40034) rotate(87.903 11.91 9.452)"/><path d="M0 2.755 4.88-.281l-.319 3.317L0 2.755Z" style="fill:#f9e98c;fill-rule:nonzero" transform="translate(301.182 32.68)"/><path d="m0-1.943 4.66-.407L4.115.407 0-1.943Z" style="fill:#fcf1bd;fill-rule:nonzero" transform="translate(301.525 37.484)"/></g><path d="M-2.892-2.786c-3.354-.146-6.072 1.03-6.073 2.628.001 1.597 2.719 3.011 6.073 3.157C.462 3.147 3.181 1.969 3.18.373c0-1.598-2.719-3.013-6.072-3.159" style="fill-rule:nonzero" transform="scale(1 -1) rotate(87.87 166.99 140.694)"/><path d="M.842-.122C-.122-.099-.901 1.246-.902 2.88-.903 4.515-.121 5.821.842 5.798c.963-.024 1.744-1.368 1.744-3.003 0-1.634-.781-2.941-1.744-2.917" style="fill:#fff;fill-rule:nonzero" transform="scale(1 -1) rotate(-16.525 35.779 -1050.34)"/><path d="M.499-.118C.071-.107-.277.4-.277 1.014c0 .614.348 1.104.776 1.093.428-.011.776-.518.776-1.132C1.275.36.927-.129.499-.118" style="fill:#fff;fill-rule:nonzero" transform="scale(1 -1) rotate(-26.646 72.731 -653.235)"/></g><path d="M0 19.351a5.506 5.506 0 0 1-1.391-1.32 8.355 8.355 0 0 1-1.015-1.649c-.578-1.166-.871-2.444-1.034-3.717a19.3 19.3 0 0 1 .575-7.624c.369-1.231.836-2.456 1.657-3.533C-.797.983-.273.455.479.228 1.226 0 2.05.216 2.63.624c1.178.84 1.772 2.09 2.218 3.296.436 1.225.676 2.493.83 3.759l-.867.102c-.148-1.219-.379-2.43-.786-3.568-.4-1.12-.987-2.24-1.882-2.864-.444-.304-.952-.422-1.422-.282-.465.133-.89.522-1.241.976-.706.922-1.162 2.079-1.506 3.24a18.454 18.454 0 0 0-.549 7.27c.333 2.428 1.116 4.727 2.575 6.798" style="fill-rule:nonzero" transform="translate(302.373 22.99)"/><path d="M0 1.588S-6.172.839-6.085.42C-5.998 0-.322.478-.322.478L0 1.588Z" style="fill-rule:nonzero" transform="translate(278.059 29.416)"/><path d="M0 3.84S-4.906.817-4.648.408C-4.392 0 .52 2.773.52 2.773L0 3.84Z" style="fill-rule:nonzero" transform="translate(278.116 24.893)"/><path d="M0 5.123S-2.751.529-2.358.265C-1.967 0 .918 4.423.918 4.423l-.918.7Z" style="fill-rule:nonzero" transform="translate(279.502 21.225)"/><path d="M-7.983-8.531C-14.078-8.53-19.021-4.948-19.02-.53c0 4.417 4.942 8 11.037 8C-1.887 7.469 3.055 3.887 3.055-.531c0-4.417-4.942-8-11.038-8" style="fill:#fff;fill-rule:nonzero" transform="scale(-1 1) rotate(-86.194 -127.963 165.48)"/><clipPath id="h"><path d="M292.361 34.821c.029-5.02-2.816-9.112-6.349-9.132-3.532-.02-6.424 4.039-6.452 9.059-.029 5.02 2.816 9.112 6.349 9.132 3.532.02 6.424-4.039 6.452-9.059Z"/></clipPath><g clip-path="url(#h)"><ellipse cx=".485" rx=".525" ry=".369" style="fill:url(#i)" transform="scale(17.33738 -17.33738) rotate(89.673 9.498 7.047)"/><path d="m0-1.627 10.132-1.758-8.515 5.143L0-1.627Z" style="fill:#fcf1bd;fill-rule:nonzero" transform="translate(278.195 38.813)"/><path d="m0-3.651 10.203 1.434L.082 0 0-3.651Z" style="fill:#f9e98c;fill-rule:nonzero" transform="translate(278.273 37.772)"/></g><path d="M-4.611-4.579c-3.902.011-7.066 2.085-7.066 4.631 0 2.547 3.164 4.602 7.066 4.592C-.709 4.632 2.455 2.559 2.455.012c0-2.547-3.164-4.601-7.066-4.591" style="fill-rule:nonzero" transform="scale(1 -1) rotate(89.596 158.436 128.987)"/><path d="M-1.052-7.457c-1.455-.111-2.633 1.502-2.632 3.602 0 2.101 1.179 3.893 2.632 4.004C.402.26 1.581-1.353 1.581-3.454c0-2.1-1.179-3.893-2.633-4.003" style="fill:#fff;fill-rule:nonzero" transform="scale(-1 1) rotate(-16.057 -21.399 1018.605)"/><path d="M-.353-2.338c-.473-.039-.856.466-.855 1.125-.001.662.382 1.228.855 1.266.473.039.856-.466.856-1.126 0-.661-.383-1.227-.856-1.265" style="fill:#fff;fill-rule:nonzero" transform="scale(-1 1) rotate(-17.17 -22.089 971.459)"/><path d="M0-3.305c-.234-.38-.544-.847-.324-1.193.084-.376.23-.732.362-1.091a9.574 9.574 0 0 1 1.138-1.979c.92-1.208 2.113-2.223 3.524-2.845a6.836 6.836 0 0 1 4.557-.416c1.512.386 2.842 1.261 3.891 2.347 2.109 2.196 3.207 5.148 3.47 8.095.272 2.928-.439 6.078-2.336 8.308 1.214-2.634 1.469-5.456 1.249-8.212-.24-2.74-1.276-5.471-3.166-7.431-.938-.972-2.1-1.725-3.378-2.05a5.739 5.739 0 0 0-3.844.356C2.72-8.326.843-5.887.542-3.245L0-3.305Z" style="fill-rule:nonzero" transform="translate(277.523 34.237)"/><path d="M0-6.133c.58.508 1.943 1.989 1.973 2.119.091.41-.457.396-.593.413-.135.019.195.88.328 1.372.134.493.307 1.037.033 1.037-.273 0-.241-.193-.421-.436s-.145.282-.28.583C.905-.744.681 0 .499-.271.317-.541.742-1.826.106-2.477-.529-3.127 0-6.133 0-6.133" style="fill:#e6effc;fill-rule:nonzero" transform="translate(306.718 48.54)"/><path d="M0 3.782c.285.098.498.094.72.036.109-.023.217-.066.308-.12a.35.35 0 0 0 .1-.079s.013-.014-.006.001c-.005.009-.025.008-.047.112-.001.093-.012.022-.01.039a9.032 9.032 0 0 0-.544-.284 2.337 2.337 0 0 1-.739-.599 2.644 2.644 0 0 1-.438-.827l-.26-.78c-.163-.529-.316-1.066-.39-1.655l.868-.101c.059.485.199.992.355 1.494l.252.757c.093.255.142.44.268.623.121.176.272.325.467.47l.334.226c.118.089.296.198.392.456.014.083.032.077.027.236-.024.14-.067.165-.094.199-.037.044-.051.048-.079.069a.911.911 0 0 1-.251.122 1.59 1.59 0 0 1-.474.075c-.314.005-.671-.17-.759-.47" style="fill:#9cbddb;fill-rule:nonzero" transform="translate(307.291 40.673)"/><path d="M0-3.961c.314.647.568 1.302.63 2.068.003.197.001.401-.079.622a.903.903 0 0 1-.207.314l-.035.035c.016.001-.142.095-.219.076a.366.366 0 0 1-.169-.062l-.059-.055c-.06-.068-.081-.112-.107-.159-.171-.346-.261-.681-.384-.968l.412-.079v.001c-.034.348-.062.699-.133 1.06a2.45 2.45 0 0 1-.166.549c-.077.175-.254.411-.511.46-.059-.016-.126.099-.342-.097-.096-.229-.011-.235-.012-.3l.112-.246c.07-.153.125-.306.158-.468a1.592 1.592 0 0 0-.137-.99c.213.276.352.633.355 1.008.004.186-.022.374-.062.552l-.055.25c-.018.017.028.104-.023-.046-.155-.126-.117-.046-.096-.076.177-.024.299-.362.356-.679.062-.326.089-.67.122-1.017v-.001l.041-.796.371.717c.17.33.289.651.444.908a.352.352 0 0 0 .038.051C.239-1.334.239-1.334.23-1.34a.171.171 0 0 0-.109-.038c-.059-.028-.191.068-.163.05l.009-.013c.026-.025.044-.069.063-.115a1.11 1.11 0 0 0 .019-.394c-.082-.597-.352-1.235-.632-1.812L0-3.961Z" style="fill:#9cbddb;fill-rule:nonzero" transform="translate(308.246 48.514)"/><path d="M5.066-7.518C1.878-7.824-1.66-6.49-2.173-6.194-4.261-4.986.002.667 5.066.286c2.396-.18 3.806-.941 4.72-3.653l-4.72-4.151Z" style="fill:#e6effc;fill-rule:nonzero" transform="scale(-1 1) rotate(10.768 -414.175 -1584.034)"/><path d="M0-7.213c1.962-.944 4.235-1.014 6.364-.708.271.037.537.088.815.15.261.05.663.193.917.475.528.596.487 1.315.401 1.879-.224 1.16-.791 2.142-1.466 3.02C5.674-.667 3.672.673 1.403.897c-1.07.117-2.283.108-3.347-.464-1.064-.566-1.755-1.532-2.297-2.473l.76-.429c.502.877 1.117 1.696 1.947 2.131C-.712.108.3.141 1.312.029c1.984-.191 3.792-1.385 5.032-2.963.613-.789 1.119-1.704 1.293-2.632.082-.452.04-.921-.177-1.126-.15-.2-.729-.263-1.227-.348C4.184-7.315 2.129-7.4 0-7.213" style="fill:#9cbddb;fill-rule:nonzero" transform="translate(296.874 50.265)"/><path d="M-1.837-2.543c.159.71.326 1.308.325 1.915.018.607-.128 1.194-.325 1.896.619-.387.992-1.142.98-1.905-.018-.766-.39-1.484-.98-1.906" style="fill:#9cbddb;fill-rule:nonzero" transform="scale(-1 1) rotate(-62.561 -107.076 263.668)"/><path d="M0-2.223c.281.017.533.107.785.24.25.131.532.316.667.657.133.344-.059.822-.358 1.023A1.577 1.577 0 0 1 .275 0C.463-.127.64-.282.747-.484a.89.89 0 0 0 .062-.662C.677-1.587.346-1.935 0-2.223" style="fill:#9cbddb;fill-rule:nonzero" transform="translate(296.915 46.165)"/><path d="M0 50.579c2.623-1.257 4.488-2.526 4.517-5.725.028-3.197-2.872-38.232-2.872-38.232L2.08 0c-4.236.377-8.527 10.789-6.966 19.888 1.132-1.986 1.759-2.286 1.759-2.286-.553 4.574-.822 11.995 2.005 18.498C1.177 41.387 1.143 48.466 0 50.579" style="fill:#3da9ff;fill-rule:nonzero" transform="translate(262.64 15.762)"/><path d="M0-44.147c-2.878 3.271-3.013 6.877-3.063 8.863.35-.719 1.047-1.277 1.6-1.437C-5.063-20.946 3.679-14.315.971 0c3.692-3.068 4.986-7.352 4.528-12.113 1.485.312 2.644.281 2.644.281-3.179-3.965-4.45-8.641-4.15-12.48 0 0 2.095.858 3.706 1.164-3.013-4.796-3.647-7.065-4.004-11.401L0-44.147Z" style="fill:#94d4ff;fill-rule:nonzero" transform="translate(264.292 65.084)"/><path d="M0-13.169c-.112 1.054-.019 2.169.152 3.26.175 1.094.439 2.178.768 3.241.671 2.111 1.574 4.197 2.935 5.9l.702.878L3.46-.06h-.001a10.897 10.897 0 0 1-1.831-.403A7.041 7.041 0 0 1-.06-1.314c-1.05-.707-1.832-1.741-2.318-2.841A8.246 8.246 0 0 0 .303-1.914c1.022.509 2.126.824 3.27.989h.001l-.395.708C1.705-2.066.786-4.22.087-6.409A24.23 24.23 0 0 1-.71-9.773c-.176-1.143-.283-2.305-.155-3.506l.865.11Z" style="fill:#2864bc;fill-rule:nonzero" transform="translate(268.474 42.428)"/><path d="M0-13.149C-.636-8.682 1.15-4.079 4.07-.676h.001l.53.631-.806.089C3.07.126 2.316.115 1.602-.085a5.846 5.846 0 0 1-1.954-.969c-.583-.428-1.058-.97-1.47-1.535a9.48 9.48 0 0 1-1.019-1.813c.393.566.815 1.107 1.285 1.589A7.7 7.7 0 0 0 .005-1.586a5.98 5.98 0 0 0 3.686.764L3.415-.1v-.001A18.87 18.87 0 0 1-.122-6.227c-.777-2.241-1.078-4.674-.741-7.048l.863.126Z" style="fill:#2864bc;fill-rule:nonzero" transform="translate(268.691 53.64)"/><path d="M0 24.359c.942 4.339-1.624 11.614-7.151 13.37 2.265-5.548-.678-12.901-2.238-17.111-1.741-4.699-1.93-12.752-.636-16.056a6.017 6.017 0 0 0-2.114 2.717c-1.319-7.262.969-17.851 7.192-20.649" style="fill:none;fill-rule:nonzero;stroke:#2864bc;stroke-width:.87px;stroke-miterlimit:20" transform="translate(269.791 28.612)"/><path d="M0-1.13c1.728 3.763 6.576 5.178 8.147 5.295-.524-.718-.912-1.494-.912-1.494 8.301-.581 19.965 4.916 26.148 14.26 2.343-5.261-1.304-15.569-2.885-17.222 2.75.626 7.527 3.025 10.014 5.369-.773-8.302-5.41-14.105-12.924-17.75-6.495-2.916-15.345-.915-16.884-.604.788-1.963 3.339-3.175 3.339-3.175-8.194-1.61-15.15 2.669-17.418 5.126" style="fill:#3da9ff;fill-rule:nonzero" transform="translate(276.753 17.967)"/><path d="M0-23.168c7.679-2.679 19.058-1.99 29.687 6.174 6.326 4.948 6.959 16.433 5.435 19.673-2.545-7.064-7.061-14.184-12.036-17.908.747 1.41.938 2.262 1.113 3.135-2.346-2.783-7.001-5.053-10.842-5.925 1.397 1.008 1.863 1.629 2.289 2.211-1.823-1.203-9.658-1.746-14.235-.194" style="fill:#94d4ff;fill-rule:nonzero" transform="translate(275.014 32.22)"/><path d="M286.985 4.776c.44-1.242 1.313-2.253 2.371-2.972-2.617-.21-5.266-.04-7.79.658-2.95.804-5.792 2.264-7.867 4.477l-.645-.588c2.238-2.384 5.204-3.887 8.283-4.731 3.096-.856 6.354-.948 9.512-.537l1.666.18-1.551.656a6.27 6.27 0 0 0-1.931 1.27 5.168 5.168 0 0 0-.73.884c-.079.11-.138.23-.205.345a27.123 27.123 0 0 1 7.601-1.12c3.595.02 7.216.819 10.436 2.471 3.225 1.638 6 4.14 7.982 7.163 1.999 3.01 3.221 6.538 3.443 10.16l.071 1.139-.822-.814c-1.315-1.37-2.915-2.467-4.617-3.352a24.737 24.737 0 0 0-2.635-1.173 27.533 27.533 0 0 0-1.56-.54c.171.244.332.494.484.75.883 1.606 1.504 3.333 1.935 5.096.428 1.765.668 3.571.721 5.386.041 1.814-.067 3.642-.585 5.444l-.235.894-.54-.777a34.13 34.13 0 0 0-11.199-10.222c-4.242-2.387-9.07-3.886-13.93-3.834.283.349.595.67.922.976l.992.929-1.355-.19c-1.864-.202-3.639-.903-5.181-1.927a11.893 11.893 0 0 1-2.125-1.794c-.633-.684-1.196-1.451-1.577-2.35l.809-.327c.661 1.513 1.957 2.791 3.376 3.745a11.134 11.134 0 0 0 3.746 1.614 7.01 7.01 0 0 1-.564-1.109 8.022 8.022 0 0 1-.507-2.265c.245.645.509 1.273.86 1.839 5.262-.186 10.437 1.388 14.962 3.933a34.998 34.998 0 0 1 10.934 9.71c.287-1.378.36-2.832.325-4.265a25.214 25.214 0 0 0-.697-5.204c-.415-1.7-1.014-3.358-1.851-4.88-.785-1.542-1.714-3.051-3.015-4.299.857.53 1.648 1.188 2.342 1.943a27.472 27.472 0 0 1 5.55 2.122c1.42.738 2.782 1.622 3.989 2.698a19.996 19.996 0 0 0-3.195-8.575 20.069 20.069 0 0 0-7.651-6.867c-3.088-1.587-6.567-2.349-10.047-2.382-3.494-.079-6.961.534-10.433 1.281a26.576 26.576 0 0 1 1.728-.669Z" style="fill:#2864bc;fill-rule:nonzero"/><clipPath id="j"><path d="M293.868 14.108c1.558-3.53 7.539-11.554 9.776-10.792 2.238.762-1.114 12.703-2.242 14.719 0 0-4.147-3.323-7.534-3.927" clip-rule="nonzero"/></clipPath><g clip-path="url(#j)"><path d="M0 9.546c-.059 3.824 4.185 4.134 4.738 3.442C7.513 9.516 10.892-3.076 9.601-3.658 8.545-4.134 3.821 2.028.689 7.037" style="fill:#e6effc;fill-rule:nonzero" transform="translate(293.747 7.73)"/><path d="M0 9.54c.238 1.647 1.295 2.89 2.766 3.208.355.081.725.134 1.076.11.172-.01.345-.039.469-.087a.41.41 0 0 0 .1-.051 3.15 3.15 0 0 0 .154-.2c.451-.618.828-1.321 1.172-2.035C7.063 7.588 8.055 4.5 8.811 1.389c.183-.78.348-1.564.472-2.347.113-.762.232-1.619.116-2.242-.014-.062-.043-.119-.037-.108.005.029.131.07.099.059a1.09 1.09 0 0 0-.337.166c-.292.194-.582.462-.864.729A24.782 24.782 0 0 0 6.649-.598 70.384 70.384 0 0 0 .985 7.216l-.591-.37c1.75-2.74 3.552-5.442 5.613-7.98a25.11 25.11 0 0 1 1.646-1.841c.301-.293.608-.578.989-.836.201-.121.391-.263.764-.309.165-.037.512.073.638.267.131.173.165.313.203.445.168.979.005 1.754-.101 2.585a32.671 32.671 0 0 1-.486 2.412c-.777 3.172-1.75 6.29-3.175 9.257-.361.74-.746 1.473-1.247 2.166-.072.096-.107.152-.219.278a1.036 1.036 0 0 1-.415.259 2.474 2.474 0 0 1-.719.131 3.985 3.985 0 0 1-1.325-.166c-.842-.248-1.649-.748-2.139-1.503C-.073 11.26-.171 10.338 0 9.54" style="fill:#9cbddb;fill-rule:nonzero" transform="translate(293.747 7.737)"/><path d="M300.386 6.338c-.142 1.637.958 3.378 2.512 3.525m-4.486-.911c-.142 1.637 1.065 4.104 3.269 4.583" style="fill:none;fill-rule:nonzero;stroke:#9cbddb;stroke-width:.66px;stroke-miterlimit:4"/></g><path d="M0 4.289a38.224 38.224 0 0 0-3.894-2.396A33.41 33.41 0 0 0-5.919.867C-6.611.56-7.3.25-8.058.071c.782-.071 1.577.091 2.319.33.749.236 1.462.562 2.151.93C-2.232 2.087-.925 3.019 0 4.289" style="fill:#2864bc;fill-rule:nonzero" transform="translate(301.632 14.004)"/><path d="M0 3.231C.663-7.507-5.166-11.862-6.759-9.747c-5.517 7.331-8.769 18.44-.602 24.84 0 0 2.425-7.852 7.361-11.862" style="fill:#e6effc;fill-rule:nonzero" transform="translate(276.804 15.496)"/><path d="M2.304-.226C.792 3.049-1.354 10.352-.697 12.422c.656 2.071 1.627 2.313 3.001-.482.527-1.109 1.823-3.882 2.395-5.699-1.227-.957-2.247-4.375-2.395-6.467" style="fill:#c3cfe0;fill-rule:nonzero" transform="scale(1 -1) rotate(-17.498 59.843 -881.756)"/><path d="M0 25.604c-1.644-.879-3.113-2.226-4.033-3.915-.934-1.678-1.449-3.569-1.592-5.467-.282-3.816.735-7.592 2.413-10.957.428-.843.907-1.661 1.457-2.44C-1.194 2.053-.604 1.295.24.692 1.187 0 2.458.175 3.33.715c.893.542 1.525 1.337 2.026 2.16.997 1.667 1.526 3.515 1.883 5.362.359 1.848.455 3.75.089 5.607-.393-1.848-.572-3.658-.902-5.453-.345-1.781-.882-3.55-1.802-5.067-.458-.752-1.039-1.434-1.738-1.858a2.283 2.283 0 0 0-1.107-.35 2.025 2.025 0 0 0-.564.056 1.569 1.569 0 0 0-.484.241c-.67.474-1.254 1.192-1.774 1.917a18.86 18.86 0 0 0-1.391 2.33c-1.622 3.239-2.581 6.893-2.339 10.498.124 1.796.601 3.564 1.458 5.136.858 1.57 1.971 3.003 3.315 4.31" style="fill:#9cbddb;fill-rule:nonzero" transform="translate(269.479 4.943)"/><path d="M0 14.583c-.476-1.451-.663-2.987-.732-4.517-.078-1.535.086-3.071.335-4.587C-.125 3.955.27 2.495.915 1.023c.204-.366.468-.759.98-.939a.959.959 0 0 1 .792.095c.22.137.357.325.465.508.396.747.449 1.522.505 2.28-.179-.729-.402-1.49-.835-2.051-.22-.281-.503-.412-.738-.3-.251.109-.466.398-.625.694C.892 2.643.528 4.139.261 5.6c-.298 1.471-.38 2.97-.47 4.467-.085 1.504.049 3.001.209 4.516" style="fill:#9cbddb;fill-rule:nonzero" transform="translate(270.023 9.144)"/><path d="M0-13.089c.586-.635 1.258-.953 2.017-.953.586 0 1.24.251 1.961.751.721.502 1.082 1.07 1.082 1.705 0 .538-.294 1.137-.88 1.797-.587.659-1.26.99-2.017.99-.586 0-1.241-.269-1.961-.807-.722-.537-1.082-1.136-1.082-1.796 0-.489.294-1.051.88-1.687M-2.053.476C-1.516-1.65-.728-2.719.312-2.732 1.35-2.744 2.26-2.75 3.043-2.75c.66 0 .99.916.99 2.749-.196 5.354-.458 9.716-.788 13.089-.33 3.373-.825 5.06-1.485 5.06v-.037c-.66 0-1.369-.22-2.127-.659-.489-.245-.733-2.518-.733-6.82 0-2.249.098-6.196.293-11.843L-2.053.476Zm-16.388 3.099c3.519-2.017 5.303-4.002 5.353-5.958 0-1.173-.624-1.76-1.87-1.76-2.518 0-4.871 1.142-7.058 3.428-2.188 2.286-3.281 5.432-3.281 9.441 0 2.199.8 4.009 2.401 5.426 1.601 1.418 3.648 2.126 6.141 2.126 3.617-.22 6.856-1.259 9.716-3.117.855-.66 1.344-.989 1.466-.989.147 0 .22.134.22.403 0 .22-.416.88-1.246 1.98-.832 1.1-2.268 2.231-4.308 3.391-2.041 1.161-4.638 1.742-7.791 1.742-2.982 0-5.536-.867-7.662-2.604-2.127-1.735-3.337-4.399-3.63-7.992 0-4.889 1.49-8.713 4.473-11.475 2.981-2.762 6.77-4.143 11.365-4.143 1.515 0 2.768.348 3.758 1.045.99.696 1.485 1.717 1.485 3.061-.269 2.2-1.479 4.179-3.63 5.939-2.151 1.76-4.876 3.142-8.175 4.143-2.005.49-3.3.734-3.887.734-.342 0-.513-.086-.513-.257 0-.122.085-.294.257-.514.757-.683 2.896-2.034 6.416-4.05m-15.49-31.421c-1.406-.818-2.72-1.228-3.942-1.228-1.955 0-3.922.929-5.902 2.787-1.98 1.857-2.97 4.436-2.97 7.736 0 4.179 2.12 9.269 6.361 15.269 4.24 6.001 6.361 10.59 6.361 13.768 0 2.566-.813 4.686-2.438 6.36-1.626 1.675-3.966 2.512-7.021 2.512-5.133-.66-7.699-2.212-7.699-4.656 0-.587.202-1.552.605-2.897.403-1.344.861-2.017 1.375-2.017.317 0 .61.441.88 1.321.39 2.052 1.154 3.317 2.291 3.794 1.136.476 2.596.716 4.381.716 1.344 0 2.365-.459 3.062-1.375.696-.917 1.045-1.816 1.045-2.696 0-2.028-2.427-6.508-7.278-13.436-4.852-6.93-7.278-12.631-7.278-17.103 0-3.324 1.479-6.453 4.436-9.386 2.957-2.933 6.086-4.4 9.386-4.4 2.493 0 4.913.893 7.259 2.677 2.347 1.784 3.52 2.957 3.52 3.519 0 .22-.208.33-.623.33-.123 0-.257-.024-.403-.073-2.2-.196-4.003-.703-5.408-1.522" style="fill:#fff;fill-rule:nonzero" transform="translate(247.252 40.388)"/><path d="M0 41.414s-2.684-.263-4.785-1.722c-2.101-1.458-16.107-11.466-16.107-11.466v19.811s.119 2.305 2.658 2.305h36.468c2.539 0 2.658-2.305 2.658-2.305V28.226S6.886 38.234 4.785 39.692C2.684 41.151 0 41.414 0 41.414M0-8.359s-17.32-.569-20.892 18.643v13.085s.148 1.4 4.087 4.245C-12.867 30.459-2.669 38.468 0 38.468c2.669 0 12.867-8.009 16.805-10.854 3.939-2.845 4.087-4.245 4.087-4.245V10.284C17.319-8.928 0-8.359 0-8.359m11.86 25.776h-23.72v-7.133C-9.453.743 0 .612 0 .612s9.453.131 11.86 9.672v7.133Z" style="fill:#fff;fill-rule:nonzero" transform="translate(31.992 11.01)"/><path d="m0-58.498 3.801 22.751-4.935.825-3.802-22.751L0-58.498ZM-15.606-53.4l13.434 18.751-4.068 2.914-13.434-18.751 4.068-2.914Zm-11.232 10.634L-7.093-30.84l-2.587 4.283-19.745-11.925 2.587-4.284Zm-5.381 11.229 22.2 6.266-1.359 4.816-22.2-6.266 1.359-4.816Zm-2.1 9.936 22.96 2.216-.481 4.982-22.96-2.216.481-4.982Zm-.538 8.786h22.945v4.883h-22.945v-4.883Zm-7.177-11.586 4.401.043-.154 19.598h29.292v-19.527h4.638V0h-38.201l.024-24.401Z" style="fill:#fff;fill-rule:nonzero" transform="translate(179.167 61.249)"/><path d="M0-62.674c-17.669 0-31.998 14.327-31.998 32.002 0 14.137 9.168 26.131 21.885 30.362 1.6.294 2.184-.694 2.184-1.542 0-.759-.028-2.772-.043-5.442-8.902 1.933-10.779-4.29-10.779-4.29-1.456-3.696-3.554-4.681-3.554-4.681-2.905-1.985.221-1.945.221-1.945 3.21.226 4.901 3.298 4.901 3.298 2.854 4.889 7.489 3.477 9.313 2.659.29-2.068 1.117-3.479 2.031-4.278-7.105-.808-14.576-3.553-14.576-15.816 0-3.493 1.247-6.35 3.294-8.587-.329-.809-1.427-4.063.314-8.469 0 0 2.686-.86 8.8 3.281 2.552-.71 5.289-1.065 8.011-1.077 2.717.012 5.455.367 8.011 1.077 6.11-4.141 8.791-3.281 8.791-3.281 1.746 4.406.648 7.66.319 8.469 2.05 2.237 3.289 5.094 3.289 8.587 0 12.293-7.482 14.998-14.611 15.79 1.149.988 2.173 2.942 2.173 5.927 0 4.277-.039 7.728-.039 8.778 0 .856.576 1.852 2.2 1.539 12.704-4.24 21.865-16.226 21.865-30.359 0-17.675-14.329-32.002-32.002-32.002" style="fill:#fff" transform="translate(95.998 62.674)"/><path d="M122.732 122.728h-21.648V85.165c0-11.082-4.712-14.5-10.789-14.5-6.423 0-12.721 4.834-12.721 14.777v37.286H55.925V53.955h20.819v9.529h.277c2.095-4.234 9.407-11.462 20.577-11.462 12.08 0 25.134 7.165 25.134 28.172v42.534ZM32.095 44.373c-6.893 0-12.481-5.247-12.481-12.427 0-7.179 5.588-12.432 12.481-12.432 6.894 0 12.482 5.253 12.482 12.432 0 7.18-5.588 12.427-12.482 12.427Zm10.825 78.303H21.271V53.902H42.92v68.774ZM133.374.001H10.63C4.759.001 0 4.76 0 10.631V133.37C0 139.241 4.759 144 10.63 144h122.744c5.871 0 10.63-4.759 10.63-10.63V10.631c0-5.871-4.759-10.63-10.63-10.63Z" style="fill:#fff;fill-rule:nonzero" transform="translate(512) scale(.44443)"/><defs><linearGradient id="a" x1="0" x2="1" y1="0" y2="0" gradientTransform="matrix(0 1 1 0 .5 -.5)" gradientUnits="userSpaceOnUse"><stop offset="0" style="stop-color:#4a8af4;stop-opacity:0"/><stop offset=".08" style="stop-color:#4a8af4;stop-opacity:0"/><stop offset="1" style="stop-color:#4a8af4;stop-opacity:1"/></linearGradient><linearGradient id="c" x1="0" x2="1" y1="0" y2="0" gradientTransform="matrix(1 0 0 -1 0 .037)" gradientUnits="userSpaceOnUse"><stop offset="0" style="stop-color:white;stop-opacity:0"/><stop offset="1" style="stop-color:white;stop-opacity:.6"/></linearGradient><linearGradient id="d" x1="0" x2="1" y1="0" y2="0" gradientTransform="matrix(1 0 0 -1 0 0)" gradientUnits="userSpaceOnUse"><stop offset="0" style="stop-color:white;stop-opacity:1"/><stop offset="1" style="stop-color:#e6e7e8;stop-opacity:1"/></linearGradient><linearGradient id="g" x1="0" x2="1" y1="0" y2="0" gradientTransform="scale(1 -1) rotate(-2.027 .444 0)" gradientUnits="userSpaceOnUse"><stop offset="0" style="stop-color:#f6df58;stop-opacity:1"/><stop offset=".7" style="stop-color:#ff8d38;stop-opacity:1"/><stop offset="1" style="stop-color:#ff8d38;stop-opacity:1"/></linearGradient><linearGradient id="i" x1="0" x2="1" y1="0" y2="0" gradientTransform="scale(1 -1) rotate(-.892 .482 0)" gradientUnits="userSpaceOnUse"><stop offset="0" style="stop-color:#f6df58;stop-opacity:1"/><stop offset=".7" style="stop-color:#ff8d38;stop-opacity:1"/><stop offset="1" style="stop-color:#ff8d38;stop-opacity:1"/></linearGradient></defs></svg>