<svg viewBox="0 0 576 64" xmlns="http://www.w3.org/2000/svg" fill-rule="evenodd" clip-rule="evenodd" stroke-miterlimit="10"><path d="M526.964 0H512v50.66L524.8 64V19.547L558.829 64H576L526.964 0zM576 16.056v28.572l-12.8-16V.056l12.8 16z" fill="#4ae61a"/><path d="M572.8 64h-19.68a3.21 3.21 0 01-3.2-3.2V43.2c0-1.76 1.44-3.2 3.2-3.2h19.68c1.76 0 3.2 1.44 3.2 3.2v17.6c0 1.76-1.44 3.2-3.2 3.2z" fill="#3a4e27" fill-rule="nonzero"/><path d="M558.68 59.08h-1.76v-11.2c-.44.4-.96.8-1.68 1.2-.68.4-1.32.72-1.84.92v-1.68c1-.48 1.84-1.04 2.56-1.68.72-.64 1.24-1.28 1.56-1.92h1.12v14.36h.04zm4.48-7.08c0-1.68.16-3.04.52-4.08s.88-1.84 1.56-2.4c.68-.56 1.56-.84 2.6-.84.76 0 1.44.16 2.04.48.6.32 1.04.76 1.44 1.32.36.6.68 1.28.88 2.12.2.84.32 1.96.32 3.4 0 1.68-.16 3.04-.52 4.08s-.88 1.84-1.56 2.4c-.68.56-1.56.84-2.6.84-1.4 0-2.48-.48-3.24-1.48-.96-1.2-1.44-3.16-1.44-5.84zm1.84 0c0 2.36.28 3.92.84 4.68.56.76 1.24 1.16 2.04 1.16s1.48-.4 2.04-1.16c.56-.8.84-2.36.84-4.68 0-2.36-.28-3.92-.84-4.68-.56-.76-1.24-1.16-2.04-1.16s-1.44.36-1.92 1.04c-.68.84-.96 2.44-.96 4.8z" fill="#fff" fill-rule="nonzero"/><circle cx=".5" r=".5" fill="url(#_Linear1)" transform="matrix(0 40.1497 40.1497 0 479.711 11.926)"/><path d="M500.218 11.494C494.74 6.016 487.458 3 479.712 3s-15.029 3.016-20.506 8.494l5.367 5.368a21.269 21.269 0 0115.139-6.27 21.267 21.267 0 0115.138 6.27A21.266 21.266 0 01501.12 32a21.264 21.264 0 01-6.27 15.138 21.266 21.266 0 01-15.138 6.27 21.256 21.256 0 01-11.962-3.648l7.028-3.164L454.509 32 452 56.852l7.987-3.596c5.379 5.001 12.34 7.744 19.725 7.744 7.746 0 15.028-3.017 20.506-8.494 5.478-5.478 8.494-12.76 8.494-20.506s-3.016-15.029-8.494-20.506z" fill="none" stroke="#000" stroke-width="5.82"/><clipPath id="a"><path d="M459.206 11.494l5.367 5.368a21.273 21.273 0 0115.139-6.271 21.272 21.272 0 0115.138 6.271A21.27 21.27 0 01501.12 32a21.268 21.268 0 01-6.27 15.138 21.271 21.271 0 01-15.138 6.27 21.253 21.253 0 01-11.962-3.648l7.027-3.164L454.509 32 452 56.852l7.986-3.596C465.367 58.257 472.327 61 479.712 61c7.746 0 15.028-3.016 20.506-8.494 5.478-5.477 8.493-12.76 8.493-20.506s-3.015-15.029-8.493-20.506S487.458 3 479.712 3c-7.747 0-15.029 3.017-20.506 8.494z" clip-rule="nonzero"/></clipPath><g clip-path="url(#a)"><path d="M512.101 64.39L479.201 32V-.39h32.901v64.78z" fill="#009600" fill-rule="nonzero"/><path d="M479.712-.39V32L447.321 64.39V-.391h32.391z" fill="#c80000" fill-rule="nonzero"/><path d="M527.115 65.655L479.712 32l-47.404 33.655h94.807z" fill="#ffce45" fill-rule="nonzero"/><path d="M.838.401L.726.285A.355.355 0 00.831.036a.311.311 0 00-.333-.323.293.293 0 00-.228.09C.204-.13.171-.086.171.008c0 .072-.006.116.034.173L.263.089l.28.38-.494.059.068-.161A.475.475 0 01.002.04a.516.516 0 01.495-.513.506.506 0 01.348.148c.09.089.151.232.152.36a.566.566 0 01-.159.366z" fill="url(#_Linear3)" fill-rule="nonzero" transform="scale(-60.81423 60.81423) rotate(-89.701 -3.449 4.497)"/></g><path d="M437.333 58.134V33.6h9.334L415.733 5.867 385.066 33.6h9.334v24.534h42.933z" fill="#c8c8c8" fill-rule="nonzero"/><path d="M421.866 40.8l-9.066-5.066V45.6l9.066-4.8zm9.067-6.133v12.267c0 1.866-1.334 2.932-2.933 2.932h-24.533c-1.868 0-2.934-1.333-2.934-2.932V34.667c0-1.867 1.333-3.2 2.934-3.2H428c1.866 0 2.933 1.6 2.933 3.2m-6.133-15.2h-18.133V22.4h18.399c-.266 0-.266-2.933-.266-2.933m3.2 9.066h-24.533V25.6H428v2.933z" fill="#7f0000" fill-rule="nonzero"/><path d="M0-.484c0-.044.14-.029.14-.068v-.04c0-.029.023-.053.052-.053h.756c.029 0 .052.024.052.053V.592a.052.052 0 01-.052.053H.192A.052.052 0 01.14.592V.097C.14.059 0 .077 0 .023v-.507z" fill="url(#_Linear4)" fill-rule="nonzero" stroke="#a7a9ac" stroke-width=".03" stroke-linejoin="round" stroke-miterlimit="2" transform="matrix(0 46.5 46.5 0 352.005 8.75)"/><path d="M330.99 12.445h15.41" fill="none" stroke="#000" stroke-width="1.5"/><path d="M350.337 11.709l1.472 1.472M351.81 11.71l-1.473 1.471" fill="none" stroke="#939598" stroke-width=".5"/><g><path d="M335.956 43.01c13.506.277 13.858 5.872 18.295 7.299 3.337 1.073 7.391-4.647 8.04-6.817 2.485-8.305 2.772-15.467-1.973-23.433.53 13.283-.616 15.707-6.363 19.279-2.485 1.544-5.809-1.725-8.69-1.223-3.455.6-7.871 3.006-9.309 4.896" fill="#73d6ed" fill-rule="nonzero"/><path d="M356.144 45.666c-.312 1.196-.688 1.025-1.062 1.003.452.423.561.684.371 1.688.362-.635.323-1.057 1.113-.796-.544-.485-.671-.649-.422-1.895zm-5.246-3.731c-.248.952-.547.815-.845.798.36.337.447.545.295 1.345.288-.507.258-.843.887-.635-.434-.386-.535-.517-.337-1.508zm9.259-1.754c-.269 1.028-.592.882-.913.862.388.365.482.589.318 1.452.312-.546.279-.91.958-.685-.468-.417-.577-.558-.363-1.629zm-16.756-.289c-.281 1.074-.618.921-.954.9.405.38.504.616.333 1.517.325-.571.291-.95 1-.716-.489-.435-.603-.582-.379-1.701zm17.741-6.048c-.312 1.196-.688 1.025-1.062 1.003.452.423.561.684.371 1.688.362-.636.323-1.057 1.113-.796-.544-.486-.671-.649-.422-1.895zm.799-7.474c-.312 1.196-.688 1.025-1.062 1.003.451.423.561.684.371 1.688.362-.636.323-1.058 1.113-.797-.544-.484-.671-.648-.422-1.894z" fill="#fffffe" fill-rule="nonzero"/><path d="M342.732 46.69l9.423-17.546" fill="none" stroke="#94c1dd" stroke-width=".54" stroke-miterlimit="4"/><path d="M351.072 31.163l1.707-3.28" fill="none" stroke="#2385be" stroke-width=".81" stroke-miterlimit="4"/><path d="M357 20.476l-9.376 8.396 12.398-1.843-10.332-5.686 5.078 11.445L357 20.476z" fill="#c3e2f4" fill-rule="nonzero"/><g><path d="M355.591 22.991l-5.082 4.551 6.721-.999-5.601-3.082 2.752 6.204 1.21-6.674z" fill="#94c1dd" fill-rule="nonzero"/></g></g><g><path d="M267.762 65.284c.263-1.804.429-3.649.675-5.516l2.722-9.065 12.657-.404 3.356 2.783c-.684 1.381-.921 4.264-1.203 7.568-.117 1.37-.157 2.866-.149 4.407" fill="#e6effc" fill-rule="nonzero" stroke="#9cbddb" stroke-width=".87" stroke-miterlimit="4"/><path d="M268.629 58.903c.739-6.145 1.188-11.937-1.281-25.222-2.048-11.019 7.718-20.852 18.9-21.596 11.183-.743 21.449 7.695 21.596 18.901.147 11.253-4.621 13.538-10.921 15.816" fill="#e6effc" fill-rule="nonzero"/><path d="M267.996 59.744c.596-4.608.848-9.23.517-13.854a87.276 87.276 0 00-.735-6.909 114.054 114.054 0 00-.544-3.435c-.189-1.134-.443-2.283-.535-3.489-.434-4.798 1.475-9.608 4.646-13.126 3.168-3.548 7.51-6.008 12.173-6.919 4.665-.944 9.63-.217 13.854 1.961 4.222 2.168 7.735 5.795 9.53 10.23.917 2.2 1.355 4.592 1.381 6.968.021 2.347-.139 4.74-.842 7.038-.658 2.297-2.076 4.456-4.058 5.823-1.966 1.388-4.222 2.144-6.46 2.771 2.119-.963 4.285-1.878 6.058-3.3 1.781-1.412 3.002-3.372 3.625-5.546.638-2.172.806-4.484.799-6.779-.015-2.276-.438-4.546-1.311-6.647-1.709-4.225-5.071-7.702-9.12-9.78-4.054-2.09-8.813-2.788-13.287-1.883-4.474.873-8.657 3.243-11.69 6.643-3.038 3.375-4.839 7.937-4.428 12.476.083 1.118.33 2.25.526 3.41.2 1.151.381 2.305.547 3.461.336 2.313.59 4.64.742 6.977.336 4.671.078 9.39-.522 14.013l-.866-.104z" fill="#9cbddb" fill-rule="nonzero"/><path d="M306.128 38.962c-.227 3.715 1.964 4.534 1.935 5.852-.123 5.366-11.359 10.614-25.398 7.639" fill="#e6effc" fill-rule="nonzero"/><path d="M306.95 39.585c-.106.338-.131.482-.047.83.068.339.152.676.243 1.012.187.673.424 1.334.642 2.036.107.351.208.716.266 1.108.069.4.029.817-.022 1.199-.127.782-.454 1.508-.879 2.142-.861 1.275-2.075 2.198-3.339 2.944-1.272.747-2.641 1.286-4.032 1.717-2.793.838-5.701 1.2-8.595 1.211-2.89-.021-5.798-.369-8.522-1.331 2.876.196 5.683.525 8.517.46 2.823-.035 5.657-.352 8.346-1.175 1.338-.415 2.651-.932 3.847-1.635 1.189-.7 2.306-1.567 3.053-2.677.37-.552.639-1.161.742-1.795.125-.643-.006-1.23-.216-1.913-.206-.664-.452-1.352-.649-2.057a15.987 15.987 0 01-.257-1.074 2.207 2.207 0 01-.064-.648c.018-.239.077-.442.138-.629l.828.275z" fill="#9cbddb" fill-rule="nonzero"/><clipPath id="b"><path d="M303.921 23.589c-2.358-.143-3.971 3.475-4.3 8.903-.328 5.427 1.485 10.068 3.843 10.21a2 2 0 00.457-.027c.459-.458.898-.977 1.293-1.567.282-.425.543-.884.773-1.377a12.03 12.03 0 00.61-1.569c.344-1.103.585-2.31.719-3.589.137-1.278.184-2.626.149-4.017a17.503 17.503 0 00-.656-4.204c-.1-.357-.212-.712-.337-1.066-.753-1.032-1.654-1.643-2.551-1.697" clip-rule="nonzero"/></clipPath><g clip-path="url(#b)"><path d="M308.26 33.174c-.327 5.427-2.506 9.71-4.865 9.568-2.36-.142-4.17-4.784-3.843-10.21.33-5.429 1.94-9.046 4.3-8.903 2.36.143 4.736 4.116 4.408 9.545" fill="#fff" fill-rule="nonzero"/><clipPath id="c"><path d="M305.335 33.995c.03 4.372-1.663 7.853-3.783 7.775-2.119-.079-3.863-3.685-3.893-8.056-.03-4.372 1.663-7.852 3.782-7.775 2.121.079 3.864 3.686 3.894 8.056z" clip-rule="nonzero"/></clipPath><g clip-path="url(#c)"><path d="M.445-.267c-.304-.013-.549.096-.549.243s.246.278.549.291C.748.28.994.171.994.024S.748-.254.445-.267z" fill="url(#_Linear7)" fill-rule="nonzero" transform="scale(14.40034 -14.40034) rotate(87.903 11.91 9.452)"/><path d="M301.182 35.435l4.88-3.036-.319 3.317-4.561-.281z" fill="#f9e98c" fill-rule="nonzero"/><path d="M301.525 35.541l4.66-.407-.545 2.757-4.115-2.35z" fill="#fcf1bd" fill-rule="nonzero"/></g><path d="M304.058 34.402c.02 3.357-1.255 6.03-2.852 5.971-1.596-.06-2.908-2.829-2.93-6.186-.023-3.357 1.256-6.03 2.85-5.97 1.597.06 2.91 2.83 2.932 6.185" fill-rule="nonzero"/><path d="M301.002 33.563c-.918-.296-1.282-1.807-.819-3.374.465-1.568 1.586-2.597 2.502-2.301.917.297 1.283 1.807.818 3.375-.465 1.566-1.585 2.597-2.501 2.3" fill="#fff" fill-rule="nonzero"/><g><path d="M301.074 37.087c-.378-.202-.461-.811-.186-1.36.276-.549.806-.83 1.184-.629.378.202.461.811.186 1.36-.276.55-.806.83-1.184.629" fill="#fff" fill-rule="nonzero"/></g></g><path d="M302.373 42.342a5.506 5.506 0 01-1.391-1.32 8.355 8.355 0 01-1.015-1.65c-.578-1.165-.871-2.443-1.034-3.716a19.3 19.3 0 01.575-7.624c.369-1.231.836-2.456 1.657-3.533.411-.525.935-1.053 1.687-1.28.747-.228 1.571-.012 2.151.396 1.178.84 1.772 2.09 2.218 3.296.436 1.225.676 2.493.83 3.759l-.867.102c-.148-1.22-.379-2.43-.786-3.568-.4-1.12-.987-2.24-1.882-2.864-.444-.304-.952-.422-1.422-.282-.465.133-.89.522-1.241.976-.706.922-1.162 2.079-1.506 3.24a18.454 18.454 0 00-.549 7.27c.333 2.428 1.116 4.727 2.575 6.798M278.059 31.004s-6.172-.75-6.085-1.168c.087-.42 5.763.058 5.763.058l.322 1.11zM278.116 28.733s-4.906-3.023-4.648-3.432c.256-.408 5.168 2.365 5.168 2.365l-.52 1.067zM279.502 26.348s-2.751-4.594-2.358-4.858c.391-.265 3.276 4.158 3.276 4.158l-.918.7z" fill-rule="nonzero"/><path d="M293.626 34.215c.404 6.081-2.842 11.251-7.25 11.543-4.408.294-8.311-4.4-8.716-10.481-.403-6.083 2.843-11.252 7.251-11.545 4.407-.293 8.31 4.4 8.715 10.483" fill="#fff" fill-rule="nonzero"/><g><clipPath id="d"><path d="M292.361 34.821c.029-5.02-2.816-9.112-6.349-9.132-3.532-.02-6.424 4.039-6.452 9.059-.029 5.02 2.816 9.112 6.349 9.132 3.532.02 6.424-4.039 6.452-9.059z"/></clipPath><g clip-path="url(#d)"><ellipse cx=".485" rx=".525" ry=".369" fill="url(#_Linear9)" transform="scale(17.33738 -17.33738) rotate(89.673 9.498 7.047)"/><path d="M278.195 37.186l10.132-1.758-8.515 5.143-1.617-3.385z" fill="#fcf1bd" fill-rule="nonzero"/><path d="M278.273 34.121l10.203 1.434-10.121 2.217-.082-3.65z" fill="#f9e98c" fill-rule="nonzero"/></g><path d="M290.85 34.998c-.04 3.902-2.135 7.051-4.681 7.033-2.547-.018-4.58-3.196-4.542-7.098.04-3.902 2.134-7.051 4.681-7.033 2.547.018 4.579 3.196 4.541 7.098" fill-rule="nonzero"/><path d="M285.65 26.946c1.43.295 2.115 2.171 1.534 4.19-.582 2.018-2.21 3.414-3.637 3.119-1.428-.296-2.115-2.172-1.534-4.19.58-2.019 2.21-3.416 3.638-3.12" fill="#fff" fill-rule="nonzero"/><g><path d="M288.788 34.643c.464.102.68.698.485 1.327-.194.633-.727 1.06-1.19.957-.464-.102-.68-.698-.486-1.328.195-.632.728-1.06 1.191-.956" fill="#fff" fill-rule="nonzero"/></g></g><g><path d="M277.523 30.932c-.234-.38-.544-.847-.324-1.193.084-.376.23-.732.362-1.091a9.574 9.574 0 011.138-1.98c.92-1.207 2.113-2.222 3.524-2.844a6.836 6.836 0 014.557-.416c1.512.386 2.842 1.26 3.891 2.347 2.109 2.196 3.207 5.148 3.47 8.095.272 2.928-.439 6.078-2.336 8.308 1.214-2.634 1.469-5.456 1.249-8.212-.24-2.74-1.276-5.471-3.166-7.431-.938-.972-2.1-1.725-3.378-2.05a5.739 5.739 0 00-3.844.356c-2.423 1.09-4.3 3.529-4.601 6.17l-.542-.06z" fill-rule="nonzero"/></g><g><path d="M306.718 42.406c.58.508 1.943 1.99 1.973 2.12.091.41-.457.395-.593.412-.135.02.195.88.328 1.372.134.493.307 1.037.033 1.037-.273 0-.241-.193-.421-.436s-.145.282-.28.583c-.135.301-.359 1.045-.541.774-.182-.27.243-1.555-.393-2.206-.635-.65-.106-3.656-.106-3.656" fill="#e6effc" fill-rule="nonzero"/><path d="M307.291 44.455c.285.098.498.094.72.036.109-.023.217-.066.308-.12a.35.35 0 00.1-.079s.013-.014-.006.001c-.005.01-.025.008-.047.112-.001.093-.012.022-.01.04a9.032 9.032 0 00-.544-.285 2.337 2.337 0 01-.739-.599 2.644 2.644 0 01-.438-.827l-.26-.78c-.163-.529-.316-1.066-.39-1.655l.868-.1c.059.484.199.991.355 1.493l.252.757c.093.255.142.44.268.623.121.176.272.325.467.47l.334.226c.118.09.296.198.392.456.014.083.032.077.027.236-.024.14-.067.165-.094.2-.037.043-.051.047-.079.068a.911.911 0 01-.251.122 1.59 1.59 0 01-.474.075c-.314.005-.671-.17-.759-.47" fill="#9cbddb" fill-rule="nonzero"/><path d="M308.246 44.553c.314.647.568 1.302.63 2.068.003.197.001.4-.079.622a.903.903 0 01-.207.314l-.035.035c.016 0-.142.095-.219.076a.366.366 0 01-.169-.062l-.059-.055c-.06-.068-.081-.112-.107-.16-.171-.345-.261-.68-.384-.967l.412-.08v.002c-.034.348-.062.699-.133 1.06a2.45 2.45 0 01-.166.549c-.077.175-.254.41-.511.46-.059-.016-.126.099-.342-.097-.096-.23-.011-.235-.012-.3l.112-.246c.07-.153.125-.306.158-.468a1.592 1.592 0 00-.137-.99c.213.276.352.633.355 1.008.004.186-.022.374-.062.552l-.055.25c-.018.017.028.104-.023-.046-.155-.126-.117-.046-.096-.076.177-.024.299-.362.356-.68.062-.325.089-.67.122-1.016v-.001l.041-.796.371.717c.17.33.289.65.444.908a.352.352 0 00.038.05l-.013-.01a.171.171 0 00-.109-.038c-.059-.028-.191.068-.163.05l.009-.013c.026-.025.044-.07.063-.115a1.11 1.11 0 00.019-.394c-.082-.597-.352-1.235-.632-1.812l.583-.3z" fill="#9cbddb" fill-rule="nonzero"/></g><g><path d="M296.875 43.051c3.074-.896 6.8-.247 7.358-.052 2.277.797-.854 7.147-5.9 7.719-2.388.27-3.915-.214-5.32-2.707l3.862-4.96z" fill="#e6effc" fill-rule="nonzero"/><path d="M296.874 43.052c1.962-.944 4.235-1.014 6.364-.708.271.037.537.088.815.15.261.05.663.193.917.475.528.596.487 1.315.401 1.879-.224 1.16-.791 2.142-1.466 3.02-1.357 1.73-3.359 3.07-5.628 3.294-1.07.117-2.283.108-3.347-.464-1.064-.566-1.755-1.532-2.297-2.473l.76-.43c.502.878 1.117 1.697 1.947 2.132.822.446 1.834.479 2.846.367 1.984-.191 3.792-1.385 5.032-2.963.613-.79 1.119-1.704 1.293-2.632.082-.452.04-.921-.177-1.126-.15-.2-.729-.263-1.227-.348-2.049-.275-4.104-.36-6.233-.173" fill="#9cbddb" fill-rule="nonzero"/><path d="M294.843 47.597c-.703.186-1.31.313-1.849.594-.547.263-1 .664-1.533 1.162.058-.728.557-1.407 1.24-1.748.687-.337 1.496-.337 2.142-.008M296.915 43.942c.281.017.533.107.785.24.25.131.532.316.667.657.133.344-.059.822-.358 1.023a1.577 1.577 0 01-.819.303c.188-.127.365-.282.472-.484a.89.89 0 00.062-.662c-.132-.44-.463-.789-.809-1.077" fill="#9cbddb" fill-rule="nonzero"/></g><g><path d="M262.64 66.34c2.623-1.256 4.488-2.525 4.517-5.724.028-3.197-2.872-38.232-2.872-38.232l.435-6.622c-4.236.377-8.527 10.789-6.966 19.888 1.132-1.986 1.759-2.286 1.759-2.286-.553 4.574-.822 11.995 2.005 18.498 2.299 5.287 2.265 12.366 1.122 14.479" fill="#3da9ff" fill-rule="nonzero"/><path d="M264.292 20.937c-2.878 3.27-3.013 6.876-3.063 8.863.35-.72 1.047-1.277 1.6-1.437-3.6 15.774 5.142 22.406 2.434 36.72 3.692-3.067 4.986-7.351 4.528-12.112 1.485.312 2.644.28 2.644.28-3.179-3.964-4.45-8.64-4.15-12.48 0 0 2.095.859 3.706 1.165-3.013-4.796-3.647-7.065-4.004-11.401l-3.695-9.598z" fill="#94d4ff" fill-rule="nonzero"/><path d="M268.474 29.259c-.112 1.054-.019 2.169.152 3.26.175 1.094.439 2.178.768 3.24.671 2.112 1.574 4.198 2.935 5.9l.702.879-1.097-.17h-.001a10.897 10.897 0 01-1.831-.403 7.041 7.041 0 01-1.688-.851c-1.05-.707-1.832-1.741-2.318-2.841a8.246 8.246 0 002.681 2.24c1.022.51 2.126.825 3.27.99h.001l-.395.708c-1.474-1.85-2.393-4.003-3.092-6.192a24.23 24.23 0 01-.797-3.364c-.176-1.143-.283-2.305-.155-3.506l.865.11z" fill="#2864bc" fill-rule="nonzero"/><path d="M268.691 40.491c-.636 4.467 1.15 9.07 4.07 12.473h.001l.53.631-.806.09c-.725.081-1.479.07-2.193-.13a5.846 5.846 0 01-1.954-.969c-.583-.428-1.058-.97-1.47-1.535a9.48 9.48 0 01-1.019-1.813c.393.566.815 1.107 1.285 1.59a7.7 7.7 0 001.561 1.226 5.98 5.98 0 003.686.764l-.276.722a18.87 18.87 0 01-3.537-6.127c-.777-2.24-1.078-4.674-.741-7.048l.863.126z" fill="#2864bc" fill-rule="nonzero"/><path d="M269.791 52.97c.942 4.34-1.624 11.615-7.151 13.37 2.265-5.547-.678-12.9-2.238-17.11-1.741-4.7-1.93-12.752-.636-16.056a6.017 6.017 0 00-2.114 2.717c-1.319-7.262.969-17.851 7.192-20.65" fill="none" stroke="#2864bc" stroke-width=".87" stroke-miterlimit="20"/></g><g><path d="M276.753 16.837c1.728 3.763 6.576 5.178 8.147 5.295-.524-.718-.912-1.494-.912-1.494 8.301-.58 19.965 4.916 26.148 14.26 2.343-5.26-1.304-15.569-2.885-17.222 2.75.626 7.527 3.025 10.014 5.37-.773-8.303-5.41-14.106-12.924-17.75-6.495-2.917-15.345-.916-16.884-.605.788-1.963 3.339-3.175 3.339-3.175-8.194-1.61-15.15 2.67-17.418 5.126" fill="#3da9ff" fill-rule="nonzero"/><path d="M275.014 9.051c7.679-2.679 19.058-1.99 29.687 6.174 6.326 4.948 6.959 16.433 5.435 19.673-2.545-7.064-7.061-14.184-12.036-17.908.747 1.41.938 2.262 1.113 3.135-2.346-2.783-7.001-5.053-10.842-5.925 1.397 1.008 1.863 1.63 2.289 2.211-1.823-1.203-9.658-1.746-14.235-.194" fill="#94d4ff" fill-rule="nonzero"/><path d="M286.985 4.776c.44-1.242 1.313-2.253 2.371-2.972-2.617-.21-5.266-.04-7.79.658-2.95.804-5.792 2.264-7.867 4.477l-.645-.588c2.238-2.384 5.204-3.887 8.283-4.731 3.096-.856 6.354-.948 9.512-.537l1.666.18-1.551.656a6.27 6.27 0 00-1.931 1.27 5.168 5.168 0 00-.73.884c-.079.11-.138.23-.205.345a27.123 27.123 0 017.601-1.12c3.595.02 7.216.819 10.436 2.471 3.225 1.638 6 4.14 7.982 7.163 1.999 3.01 3.221 6.538 3.443 10.16l.071 1.139-.822-.814c-1.315-1.37-2.915-2.467-4.617-3.352a24.737 24.737 0 00-2.635-1.173 27.533 27.533 0 00-1.56-.54c.171.244.332.494.484.75.883 1.606 1.504 3.333 1.935 5.096.428 1.765.668 3.571.721 5.386.041 1.814-.067 3.642-.585 5.444l-.235.894-.54-.777a34.13 34.13 0 00-11.199-10.222c-4.242-2.387-9.07-3.886-13.93-3.834.283.349.595.67.922.976l.992.929-1.355-.19c-1.864-.202-3.639-.903-5.181-1.927a11.893 11.893 0 01-2.125-1.794c-.633-.684-1.196-1.451-1.577-2.35l.809-.327c.661 1.513 1.957 2.791 3.376 3.745a11.134 11.134 0 003.746 1.614 7.01 7.01 0 01-.564-1.109 8.022 8.022 0 01-.507-2.265c.245.645.509 1.273.86 1.839 5.262-.186 10.437 1.388 14.962 3.933a34.998 34.998 0 0110.934 9.71c.287-1.378.36-2.832.325-4.265a25.214 25.214 0 00-.697-5.204c-.415-1.7-1.014-3.358-1.851-4.88-.785-1.542-1.714-3.051-3.015-4.299.857.53 1.648 1.188 2.342 1.943a27.472 27.472 0 015.55 2.122c1.42.738 2.782 1.622 3.989 2.698a19.996 19.996 0 00-3.195-8.575 20.069 20.069 0 00-7.651-6.867c-3.088-1.587-6.567-2.349-10.047-2.382-3.494-.079-6.961.534-10.433 1.281a26.576 26.576 0 011.728-.669z" fill="#2864bc" fill-rule="nonzero"/></g><g><clipPath id="e"><path d="M293.868 14.108c1.558-3.53 7.539-11.554 9.776-10.792 2.238.762-1.114 12.703-2.242 14.719 0 0-4.147-3.323-7.534-3.927" clip-rule="nonzero"/></clipPath><g clip-path="url(#e)"><path d="M293.747 17.277c-.059 3.824 4.185 4.134 4.738 3.442 2.775-3.472 6.154-16.064 4.863-16.646-1.056-.476-5.78 5.686-8.912 10.695" fill="#e6effc" fill-rule="nonzero"/><path d="M293.747 17.277c.238 1.647 1.295 2.89 2.766 3.208.355.08.725.134 1.076.11.172-.01.345-.04.469-.087a.41.41 0 00.1-.051 3.15 3.15 0 00.154-.2c.451-.618.828-1.321 1.172-2.035 1.326-2.897 2.318-5.985 3.074-9.096.183-.78.348-1.564.472-2.347.113-.762.232-1.62.116-2.242-.014-.062-.043-.12-.037-.108.005.029.131.07.099.059a1.09 1.09 0 00-.337.166c-.292.194-.582.462-.864.729a24.782 24.782 0 00-1.611 1.756 70.384 70.384 0 00-5.664 7.814l-.591-.37c1.75-2.74 3.552-5.442 5.613-7.98a25.11 25.11 0 011.646-1.841c.301-.293.608-.578.989-.836.201-.121.391-.263.764-.31.165-.036.512.074.638.268.131.173.165.313.203.445.168.979.005 1.754-.101 2.585a32.671 32.671 0 01-.486 2.412c-.777 3.172-1.75 6.29-3.175 9.257-.361.74-.746 1.473-1.247 2.166-.072.096-.107.152-.219.278a1.036 1.036 0 01-.415.259 2.474 2.474 0 01-.719.13 3.985 3.985 0 01-1.325-.165c-.842-.248-1.649-.748-2.139-1.503-.494-.751-.592-1.673-.421-2.471" fill="#9cbddb" fill-rule="nonzero"/><path d="M300.386 6.338c-.142 1.637.958 3.378 2.512 3.525m-4.486-.911c-.142 1.637 1.065 4.104 3.269 4.583" fill="none" stroke="#9cbddb" stroke-width=".66" stroke-miterlimit="4"/></g><g><path d="M301.632 18.293a38.224 38.224 0 00-3.894-2.396 33.41 33.41 0 00-2.025-1.027c-.692-.306-1.381-.616-2.139-.795.782-.071 1.577.09 2.319.33.749.236 1.462.562 2.151.93 1.356.755 2.663 1.687 3.588 2.957" fill="#2864bc" fill-rule="nonzero"/></g></g><g><path d="M276.804 18.727c.663-10.738-5.166-15.093-6.759-12.978-5.517 7.33-8.769 18.44-.602 24.84 0 0 2.425-7.852 7.361-11.862" fill="#e6effc" fill-rule="nonzero"/><path d="M270.02 23.717c-.457-3.578-.308-11.189.941-12.965 1.249-1.778 2.247-1.717 2.717 1.362.17 1.216.572 4.25.571 6.155-1.458.544-3.458 3.497-4.229 5.448" fill="#c3cfe0" fill-rule="nonzero"/><path d="M269.479 30.547c-1.644-.88-3.113-2.226-4.033-3.915-.934-1.678-1.449-3.57-1.592-5.467-.282-3.816.735-7.592 2.413-10.957.428-.843.907-1.661 1.457-2.44.561-.772 1.151-1.53 1.995-2.133.947-.692 2.218-.517 3.09.023.893.542 1.525 1.337 2.026 2.16.997 1.667 1.526 3.515 1.883 5.362.359 1.848.455 3.75.089 5.607-.393-1.848-.572-3.658-.902-5.453-.345-1.781-.882-3.55-1.802-5.067-.458-.752-1.039-1.434-1.738-1.858a2.283 2.283 0 00-1.107-.35 2.025 2.025 0 00-.564.056 1.569 1.569 0 00-.484.24c-.67.475-1.254 1.193-1.774 1.918a18.86 18.86 0 00-1.391 2.33c-1.622 3.239-2.581 6.893-2.339 10.498.124 1.796.601 3.564 1.458 5.136.858 1.57 1.971 3.003 3.315 4.31" fill="#9cbddb" fill-rule="nonzero"/><path d="M270.023 23.727c-.476-1.45-.663-2.987-.732-4.517-.078-1.535.086-3.07.335-4.587.272-1.524.667-2.984 1.312-4.456.204-.366.468-.759.98-.939a.959.959 0 01.792.095c.22.137.357.325.465.508.396.747.449 1.522.505 2.28-.179-.729-.402-1.49-.835-2.05-.22-.282-.503-.413-.738-.3-.251.108-.466.397-.625.693-.567 1.333-.931 2.83-1.198 4.29-.298 1.471-.38 2.97-.47 4.467-.085 1.504.049 3.001.209 4.516" fill="#9cbddb" fill-rule="nonzero"/></g></g><g><path d="M247.252 27.3c.586-.636 1.258-.954 2.017-.954.586 0 1.24.251 1.961.751.721.502 1.082 1.07 1.082 1.705 0 .538-.294 1.137-.88 1.797-.587.66-1.26.99-2.017.99-.586 0-1.241-.269-1.961-.807-.722-.537-1.082-1.136-1.082-1.796 0-.489.294-1.05.88-1.687m-2.053 13.565c.537-2.126 1.325-3.195 2.365-3.208 1.038-.012 1.948-.018 2.731-.018.66 0 .99.916.99 2.75-.196 5.353-.458 9.715-.788 13.088-.33 3.373-.825 5.06-1.485 5.06V58.5c-.66 0-1.369-.22-2.127-.659-.489-.245-.733-2.518-.733-6.82 0-2.249.098-6.196.293-11.843l-1.246 1.687zm-16.388 3.1c3.519-2.018 5.303-4.003 5.353-5.959 0-1.173-.624-1.76-1.87-1.76-2.518 0-4.871 1.142-7.058 3.428-2.188 2.286-3.281 5.432-3.281 9.441 0 2.2.8 4.01 2.401 5.426 1.601 1.418 3.648 2.126 6.141 2.126 3.617-.22 6.856-1.259 9.716-3.117.855-.66 1.344-.989 1.466-.989.147 0 .22.134.22.403 0 .22-.416.88-1.246 1.98-.832 1.1-2.268 2.231-4.308 3.391-2.041 1.161-4.638 1.742-7.791 1.742-2.982 0-5.536-.867-7.662-2.604-2.127-1.735-3.337-4.399-3.63-7.992 0-4.889 1.49-8.713 4.473-11.475 2.981-2.762 6.77-4.143 11.365-4.143 1.515 0 2.768.348 3.758 1.045.99.696 1.485 1.717 1.485 3.061-.269 2.2-1.479 4.18-3.63 5.94-2.151 1.76-4.876 3.141-8.175 4.142-2.005.49-3.3.734-3.887.734-.342 0-.513-.086-.513-.257 0-.122.085-.294.257-.514.757-.683 2.896-2.034 6.416-4.05m-15.49-31.42c-1.406-.819-2.72-1.229-3.942-1.229-1.955 0-3.922.93-5.902 2.787-1.98 1.857-2.97 4.436-2.97 7.736 0 4.18 2.12 9.27 6.361 15.27 4.24 6 6.361 10.59 6.361 13.767 0 2.566-.813 4.686-2.438 6.36-1.626 1.675-3.966 2.512-7.021 2.512-5.133-.66-7.699-2.212-7.699-4.656 0-.587.202-1.552.605-2.897.403-1.344.861-2.017 1.375-2.017.317 0 .61.441.88 1.321.39 2.052 1.154 3.317 2.291 3.794 1.136.476 2.596.716 4.381.716 1.344 0 2.365-.459 3.062-1.375.696-.917 1.045-1.816 1.045-2.696 0-2.028-2.427-6.508-7.278-13.436-4.852-6.93-7.278-12.63-7.278-17.103 0-3.324 1.479-6.453 4.436-9.386 2.957-2.933 6.086-4.4 9.386-4.4 2.493 0 4.913.893 7.259 2.677 2.347 1.784 3.52 2.957 3.52 3.52 0 .22-.208.33-.623.33-.123 0-.257-.025-.403-.074-2.2-.196-4.003-.703-5.408-1.522" fill="#fff" fill-rule="nonzero"/></g><g><path d="M31.992 52.424s-2.684-.263-4.785-1.722C25.106 49.244 11.1 39.236 11.1 39.236v19.81s.119 2.306 2.658 2.306h36.468c2.539 0 2.658-2.305 2.658-2.305V39.236S38.878 49.244 36.777 50.702c-2.101 1.459-4.785 1.722-4.785 1.722m0-49.773S14.672 2.08 11.1 21.294v13.085s.148 1.4 4.087 4.245c3.938 2.845 14.136 10.854 16.805 10.854 2.669 0 12.867-8.01 16.805-10.854 3.939-2.845 4.087-4.245 4.087-4.245V21.294C49.31 2.082 31.992 2.65 31.992 2.65m11.86 25.776h-23.72v-7.133c2.407-9.541 11.86-9.672 11.86-9.672s9.453.13 11.86 9.672v7.133z" fill="#fff" fill-rule="nonzero"/></g><g><path d="M179.167 2.751l3.801 22.751-4.935.825-3.802-22.751 4.936-.825zm-15.606 5.098L176.995 26.6l-4.068 2.914-13.434-18.751 4.068-2.914zm-11.232 10.634l19.745 11.926-2.587 4.283-19.745-11.925 2.587-4.284zm-5.381 11.229l22.2 6.266-1.359 4.816-22.2-6.266 1.359-4.816zm-2.1 9.936l22.96 2.216-.481 4.982-22.96-2.216.481-4.982zm-.538 8.786h22.945v4.883H144.31v-4.883zm-7.177-11.586l4.401.043-.154 19.598h29.292V36.962h4.638v24.287h-38.201l.024-24.401z" fill="#fff" fill-rule="nonzero"/></g><g><path d="M95.998 0C78.329 0 64 14.327 64 32.002c0 14.137 9.168 26.131 21.885 30.362 1.6.294 2.184-.694 2.184-1.542 0-.759-.028-2.772-.043-5.442-8.902 1.933-10.779-4.29-10.779-4.29-1.456-3.696-3.554-4.681-3.554-4.681-2.905-1.985.221-1.945.221-1.945 3.21.226 4.901 3.298 4.901 3.298 2.854 4.889 7.489 3.477 9.313 2.659.29-2.068 1.117-3.479 2.031-4.278-7.105-.808-14.576-3.553-14.576-15.816 0-3.493 1.247-6.35 3.294-8.587-.329-.809-1.427-4.063.314-8.469 0 0 2.686-.86 8.8 3.281 2.552-.71 5.289-1.065 8.011-1.077 2.717.012 5.455.367 8.011 1.077 6.11-4.141 8.791-3.281 8.791-3.281 1.746 4.406.648 7.66.319 8.469 2.05 2.237 3.289 5.094 3.289 8.587 0 12.293-7.482 14.998-14.611 15.79 1.149.988 2.173 2.942 2.173 5.927 0 4.277-.039 7.728-.039 8.778 0 .856.576 1.852 2.2 1.539C118.839 58.121 128 46.135 128 32.002 128 14.327 113.671 0 95.998 0" fill="#fff"/></g><defs><linearGradient id="_Linear1" x1="0" y1="0" x2="1" y2="0" gradientUnits="userSpaceOnUse" gradientTransform="matrix(0 1 1 0 .5 -.5)"><stop offset="0" stop-color="#4a8af4" stop-opacity="0"/><stop offset=".08" stop-color="#4a8af4" stop-opacity="0"/><stop offset="1" stop-color="#4a8af4"/></linearGradient><linearGradient id="_Linear3" x1="0" y1="0" x2="1" y2="0" gradientUnits="userSpaceOnUse" gradientTransform="matrix(1 0 0 -1 0 .037)"><stop offset="0" stop-color="#fff" stop-opacity="0"/><stop offset="1" stop-color="#fff" stop-opacity=".6"/></linearGradient><linearGradient id="_Linear4" x1="0" y1="0" x2="1" y2="0" gradientUnits="userSpaceOnUse" gradientTransform="matrix(1 0 0 -1 0 0)"><stop offset="0" stop-color="#fff"/><stop offset="1" stop-color="#e6e7e8"/></linearGradient><linearGradient id="_Linear7" x1="0" y1="0" x2="1" y2="0" gradientUnits="userSpaceOnUse" gradientTransform="scale(1 -1) rotate(-2.027 .444 0)"><stop offset="0" stop-color="#f6df58"/><stop offset=".7" stop-color="#ff8d38"/><stop offset="1" stop-color="#ff8d38"/></linearGradient><linearGradient id="_Linear9" x1="0" y1="0" x2="1" y2="0" gradientUnits="userSpaceOnUse" gradientTransform="scale(1 -1) rotate(-.892 .482 0)"><stop offset="0" stop-color="#f6df58"/><stop offset=".7" stop-color="#ff8d38"/><stop offset="1" stop-color="#ff8d38"/></linearGradient></defs></svg>