<svg xmlns="http://www.w3.org/2000/svg" xmlns:xlink="http://www.w3.org/1999/xlink" viewBox="0 0 512 64" enable-background="new 0 0 512 64"><linearGradient id="a" gradientUnits="userSpaceOnUse" x1="459.637" y1="32" x2="499.787" y2="32"><stop offset=".082" stop-color="#4a8af4" stop-opacity="0"/><stop offset="1" stop-color="#4a8af4"/></linearGradient><circle fill="url(#a)" cx="479.7" cy="32" r="20.1"/><path fill="none" stroke="#000" stroke-width="5.82" stroke-miterlimit="10" d="M500.2 11.5C494.7 6 487.5 3 479.7 3c-7.7 0-15 3-20.5 8.5l5.4 5.4c4-4 9.4-6.3 15.1-6.3 5.7 0 11.1 2.2 15.1 6.3 4 4 6.3 9.4 6.3 15.1s-2.2 11.1-6.3 15.1-9.4 6.3-15.1 6.3c-4.3 0-8.5-1.3-12-3.6l7-3.2L454.5 32 452 56.9l8-3.6c5.4 5 12.3 7.7 19.7 7.7 7.7 0 15-3 20.5-8.5s8.5-12.8 8.5-20.5-3-15-8.5-20.5z"/><defs><path id="b" d="M500.2 11.5C494.7 6 487.5 3 479.7 3c-7.7 0-15 3-20.5 8.5l5.4 5.4c4-4 9.4-6.3 15.1-6.3 5.7 0 11.1 2.2 15.1 6.3 4 4 6.3 9.4 6.3 15.1s-2.2 11.1-6.3 15.1-9.4 6.3-15.1 6.3c-4.3 0-8.5-1.3-12-3.6l7-3.2L454.5 32 452 56.9l8-3.6c5.4 5 12.3 7.7 19.7 7.7 7.7 0 15-3 20.5-8.5s8.5-12.8 8.5-20.5-3-15-8.5-20.5z"/></defs><clipPath id="c"><use xlink:href="#b" overflow="visible"/></clipPath><path clip-path="url(#c)" fill="#009600" d="M512.1 64.4L479.2 32V-.4h32.9z"/><path clip-path="url(#c)" fill="#C80000" d="M479.7-.4V32l-32.4 32.4V-.4z"/><path clip-path="url(#c)" fill="#FFCE45" d="M527.1 65.7L479.7 32l-47.4 33.7z"/><linearGradient id="d" gradientUnits="userSpaceOnUse" x1="479.87" y1="62.364" x2="479.553" y2="1.551"><stop offset="0" stop-color="#fff" stop-opacity="0"/><stop offset="1" stop-color="#fff" stop-opacity=".6"/></linearGradient><circle clip-path="url(#c)" fill="url(#d)" cx="479.7" cy="32" r="30.4"/><g><path fill="#C8C8C8" d="M437.3 58.1V33.6h9.3L415.7 5.9 385 33.6h9.3v24.5h43z"/><path fill="#7F0000" d="M428 28.5h-24.5v-2.9H428v2.9zm-3.2-9h-18.1v2.9h18.4c-.3 0-.3-2.9-.3-2.9zm6.1 15.2V47c0 1.9-1.3 2.9-2.9 2.9h-24.5c-1.9 0-2.9-1.3-2.9-2.9V34.7c0-1.9 1.3-3.2 2.9-3.2H428c1.9 0 2.9 1.6 2.9 3.2zm-9 6.1l-9.1-5.1v9.9l9.1-4.8z"/></g><g><linearGradient id="e" gradientUnits="userSpaceOnUse" x1="352.005" y1="8.75" x2="352.005" y2="55.25"><stop offset="0" stop-color="#fff"/><stop offset="1" stop-color="#e6e7e8"/></linearGradient><path fill="url(#e)" stroke="#A7A9AC" stroke-width="1.5" stroke-miterlimit="10" d="M353.1 8.8h-23.6c-2.1 0-1.4 6.5-3.2 6.5h-1.8c-1.4 0-2.5 1.1-2.5 2.4v35.1c0 1.3 1.1 2.4 2.5 2.4h55.1c1.4 0 2.5-1.1 2.5-2.4V17.7c0-1.3-1.1-2.4-2.5-2.4h-23c-1.8 0-1-6.5-3.5-6.5z"/><path fill="none" stroke="#000" stroke-width="1.5" stroke-miterlimit="10" d="M331 12.4h15.4"/><g fill="none" stroke="#939598" stroke-width=".5" stroke-miterlimit="10"><path d="M350.3 11.7l1.5 1.5M351.8 11.7l-1.5 1.5"/></g><path fill="#73D6ED" d="M335.863 43.026c13.51.279 13.754 5.92 18.3 7.285 3.342 1.152 7.347-4.607 8.115-6.834 2.531-8.321 2.685-15.508-1.985-23.55.509 13.275-.614 15.75-6.278 19.287-2.392 1.567-5.83-1.841-8.627-1.155-3.661.658-8.076 3.11-9.525 4.967z"/><path fill="#FFFFFE" d="M361.9 26.306c-.215 1.206-.725.93-.988 1.007.419.447.496.71.375 1.746.37-.681.384-1.114 1.065-.744-.589-.54-.667-.803-.453-2.009zM361.128 33.82c-.214 1.206-.724.928-.987 1.006.418.448.496.71.375 1.746.37-.68.384-1.114 1.065-.744-.589-.54-.667-.802-.453-2.009zM360.138 40.112c-.292.944-.632.759-.895.837.418.447.589.54.297 1.483.277-.51.292-.944.972-.574-.418-.447-.588-.54-.374-1.746zM356.224 45.7c-.213 1.207-.724.93-.986 1.007.418.448.496.71.374 1.746.37-.68.384-1.114 1.065-.744-.759-.632-.836-.895-.453-2.008zM350.977 41.972c-.292.944-.462.851-.895.837.248.355.418.447.39 1.313.276-.511.199-.774.802-.667-.419-.447-.589-.54-.297-1.483zM343.337 39.81c-.384 1.114-.725.93-.895.837.418.447.496.71.297 1.483.277-.51.292-.944 1.065-.744-.51-.277-.681-.37-.467-1.576z"/><path fill="#C3E2F4" stroke="#94C1DD" stroke-width="1.03800688" d="M342.672 46.72l9.512-17.532"/><path fill="#2385BE" stroke="#2385BE" stroke-width="1.5589469" d="M351.076 31.23l1.754-3.234"/><path fill="#C3E2F4" d="M356.894 20.506l-9.378 8.352 12.453-1.836-10.384-5.634 5.08 11.349 2.229-12.23z"/><path fill="#94C1DD" d="M355.6 22.89l-5.09 4.509 6.706-.99-5.617-3.047 2.827 6.16 1.175-6.633z"/></g><g><defs><path id="f" d="M256 0h64v64h-64z"/></defs><clipPath id="g"><use xlink:href="#f" overflow="visible"/></clipPath><g clip-path="url(#g)"><path fill="#2864BC" d="M293.4 45.6c-.3-.1-.6-.3-.7-.4-.1-.2-.3-.4-.4-.6-.3-.4-.6-.7-1-1-.4-.3-.8-.5-1.2-.8l-.6-.3c-.2-.1-.4-.3-.5-.7.3-.2.6-.2.9-.1.2.1.5.2.7.3.5.2.9.5 1.3.9.4.3.8.7 1.1 1.1.2.2.3.4.5.7 0 .2 0 .5-.1.9z"/><path fill="none" stroke="#2864BC" stroke-width=".873" stroke-miterlimit="20" d="M291.5 43.2c2.2.7 3.4 1.7 4.3 4.8 1.4-2.4.7-6.5-5.3-13-3.2-3.5-5.2-5.1-4.7-11.4"/></g><path clip-path="url(#g)" fill="#E6EFFC" stroke="#9CBDDB" stroke-width=".873" d="M267.8 65.3c.3-1.8.4-3.6.7-5.5l2.7-9.1 12.7-.4 3.4 2.8c-.7 1.4-.9 4.3-1.2 7.6-.1 1.4-.2 2.9-.1 4.4"/><g clip-path="url(#g)"><path fill="#E6EFFC" d="M268.6 58.9c.7-6.1 1.2-11.9-1.3-25.2-2-11 7.7-20.9 18.9-21.6 11.2-.7 21.4 7.7 21.6 18.9.1 11.3-4.6 13.5-10.9 15.8"/><path fill="#9CBDDB" d="M268 59.7c.6-4.6.8-9.2.5-13.9-.1-2.3-.4-4.6-.7-6.9-.2-1.1-.3-2.3-.5-3.4s-.4-2.3-.5-3.5c-.4-4.8 1.5-9.6 4.6-13.1 3.2-3.5 7.5-6 12.2-6.9 4.7-.9 9.6-.2 13.9 2 4.2 2.2 7.7 5.8 9.5 10.2.9 2.2 1.4 4.6 1.4 7 0 2.3-.1 4.7-.8 7-.7 2.3-2.1 4.5-4.1 5.8-2 1.4-4.2 2.1-6.5 2.8 2.1-1 4.3-1.9 6.1-3.3 1.8-1.4 3-3.4 3.6-5.5.6-2.2.8-4.5.8-6.8s-.4-4.5-1.3-6.6c-1.7-4.2-5.1-7.7-9.1-9.8-4.1-2.1-8.8-2.8-13.3-1.9-4.5.9-8.7 3.2-11.7 6.6-3 3.4-4.8 7.9-4.4 12.5.1 1.1.3 2.3.5 3.4.2 1.2.4 2.3.5 3.5.3 2.3.6 4.6.7 7 .3 4.7.1 9.4-.5 14l-.9-.2z"/><path fill="#E6EFFC" d="M306.1 39c-.2 3.7 2 4.5 1.9 5.9-.1 5.4-11.4 10.6-25.4 7.6"/><path fill="#9CBDDB" d="M307 39.6c-.1.3-.1.5 0 .8.1.3.2.7.2 1 .2.7.4 1.3.6 2 .1.4.2.7.3 1.1.1.4 0 .8 0 1.2-.1.8-.5 1.5-.9 2.1-.9 1.3-2.1 2.2-3.3 2.9-1.3.7-2.6 1.3-4 1.7-2.8.8-5.7 1.2-8.6 1.2-2.9 0-5.8-.4-8.5-1.3 2.9.2 5.7.5 8.5.5s5.7-.4 8.3-1.2c1.3-.4 2.7-.9 3.8-1.6 1.2-.7 2.3-1.6 3.1-2.7.4-.6.6-1.2.7-1.8.1-.6 0-1.2-.2-1.9s-.5-1.4-.6-2.1c-.1-.4-.2-.7-.3-1.1 0-.2-.1-.4-.1-.6 0-.2.1-.4.1-.6l.9.4z"/><defs><filter id="h" filterUnits="userSpaceOnUse" x="297.7" y="23.6" width="10.6" height="19.1"><feColorMatrix values="1 0 0 0 0 0 1 0 0 0 0 0 1 0 0 0 0 0 1 0"/></filter></defs><mask maskUnits="userSpaceOnUse" x="297.7" y="23.6" width="10.6" height="19.1" id="i"><g filter="url(#h)"><path fill="#FFF" d="M303.9 23.6c-2.4-.1-4 3.5-4.3 8.9-.3 5.4 1.5 10.1 3.8 10.2h.5c.5-.5.9-1 1.3-1.6.3-.4.5-.9.8-1.4.2-.5.4-1 .6-1.6.3-1.1.6-2.3.7-3.6.1-1.3.2-2.6.1-4 0-1.4-.3-2.8-.7-4.2-.1-.4-.2-.7-.3-1.1-.8-.9-1.7-1.5-2.5-1.6z"/></g></mask><g mask="url(#i)"><path fill="#FFF" d="M308.3 33.2c-.3 5.4-2.5 9.7-4.9 9.6-2.4-.1-4.2-4.8-3.8-10.2.3-5.4 1.9-9 4.3-8.9 2.3.1 4.7 4 4.4 9.5z"/><defs><filter id="j" filterUnits="userSpaceOnUse" x="297.7" y="25.9" width="8.5" height="15.8"><feColorMatrix values="1 0 0 0 0 0 1 0 0 0 0 0 1 0 0 0 0 0 1 0"/></filter></defs><linearGradient id="k" gradientUnits="userSpaceOnUse" x1="327.964" y1="101.333" x2="328.672" y2="86.95" gradientTransform="rotate(-2.746 -959.453 622.844)"><stop offset="0" stop-color="#f6df58"/><stop offset=".7" stop-color="#ff8d38"/></linearGradient><path fill="url(#k)" d="M305.3 34c0 4.4-1.7 7.9-3.8 7.8-2.1-.1-3.9-3.7-3.9-8.1 0-4.4 1.7-7.9 3.8-7.8 2.2.1 3.9 3.7 3.9 8.1z"/><path fill="#F9E98C" d="M301.2 35.4l4.9-3-.4 3.3z"/><path fill="#FCF1BD" d="M301.5 35.5l4.7-.4-.6 2.8z"/><path d="M304.1 34.4c0 3.4-1.3 6-2.9 6-1.6-.1-2.9-2.8-2.9-6.2 0-3.4 1.3-6 2.9-6 1.5.1 2.8 2.8 2.9 6.2z"/><path fill="#FFF" d="M301 33.6c-.9-.3-1.3-1.8-.8-3.4.5-1.6 1.6-2.6 2.5-2.3.9.3 1.3 1.8.8 3.4-.5 1.5-1.6 2.6-2.5 2.3zM301.1 37.1c-.4-.2-.5-.8-.2-1.4.3-.5.8-.8 1.2-.6.4.2.5.8.2 1.4-.3.5-.8.8-1.2.6z"/></g><path d="M302.4 42.3c-.5-.4-1-.8-1.4-1.3-.4-.5-.7-1.1-1-1.6-.6-1.2-.9-2.4-1-3.7-.3-2.6-.1-5.1.6-7.6.4-1.2.8-2.5 1.7-3.5.4-.5.9-1.1 1.7-1.3.7-.2 1.6 0 2.1.4 1.2.8 1.8 2.1 2.2 3.3.4 1.2.7 2.5.8 3.8l-.9.1c-.1-1.2-.4-2.4-.8-3.6-.4-1.1-1-2.2-1.9-2.9-.4-.3-1-.4-1.4-.3-.5.1-.9.5-1.2 1-.7.9-1.2 2.1-1.5 3.2-.7 2.3-.9 4.9-.5 7.3.2 2.4 1 4.7 2.5 6.7z"/><g><path d="M278.1 31s-6.2-.7-6.1-1.2c.1-.4 5.8.1 5.8.1l.3 1.1zM278.1 28.7s-4.9-3-4.6-3.4 5.2 2.4 5.2 2.4l-.6 1zM279.5 26.3s-2.8-4.6-2.4-4.9c.4-.3 3.3 4.2 3.3 4.2l-.9.7z"/><path fill="#FFF" d="M293.6 34.2c.4 6.1-2.8 11.3-7.2 11.5-4.4.3-8.3-4.4-8.7-10.5-.4-6.1 2.8-11.3 7.2-11.5s8.3 4.4 8.7 10.5z"/><defs><filter id="l" filterUnits="userSpaceOnUse" x="278.2" y="25.7" width="14.2" height="18.2"><feColorMatrix values="1 0 0 0 0 0 1 0 0 0 0 0 1 0 0 0 0 0 1 0"/></filter></defs><mask maskUnits="userSpaceOnUse" x="278.2" y="25.7" width="14.2" height="18.2" id="m"><g filter="url(#l)"><path fill="#FFF" d="M293.6 34.2c-.4-6.1-4.4-10.8-9-10.5-.6 0-1.3.2-1.9.4-.2 0-.4.1-.7.1-4.3 1.1-6.5 6.8-5 12.7 1.5 5.9 6.2 9.8 10.5 8.7 2-.5 3.5-2 4.4-4 1.3-1.9 1.9-4.6 1.7-7.4z"/></g></mask><g mask="url(#m)"><defs><filter id="n" filterUnits="userSpaceOnUse" x="278.2" y="25.7" width="14.2" height="18.2"><feColorMatrix values="1 0 0 0 0 0 1 0 0 0 0 0 1 0 0 0 0 0 1 0"/></filter></defs><linearGradient id="o" gradientUnits="userSpaceOnUse" x1="328.842" y1="267.267" x2="332.458" y2="250.311" gradientTransform="rotate(-12.604 -707.095 348.995)"><stop offset="0" stop-color="#f6df58"/><stop offset=".7" stop-color="#ff8d38"/></linearGradient><path fill="url(#o)" d="M292.3 34.8c0 5-2.9 9.1-6.5 9.1-3.5 0-6.4-4.1-6.3-9.1 0-5 2.9-9.1 6.5-9.1s6.4 4.1 6.3 9.1z"/><path fill="#FCF1BD" d="M278.2 37.2l10.1-1.8-8.5 5.2z"/><path fill="#F9E98C" d="M278.3 34.1l10.2 1.5-10.1 2.2z"/><path d="M290.8 35c0 3.9-2.1 7.1-4.7 7-2.5 0-4.6-3.2-4.5-7.1 0-3.9 2.1-7.1 4.7-7s4.6 3.2 4.5 7.1z"/><path fill="#FFF" d="M285.7 26.9c1.4.3 2.1 2.2 1.5 4.2-.6 2-2.2 3.4-3.6 3.1-1.4-.3-2.1-2.2-1.5-4.2.5-2 2.1-3.4 3.6-3.1zM288.8 34.6c.5.1.7.7.5 1.3-.2.6-.7 1.1-1.2 1-.5-.1-.7-.7-.5-1.3.2-.6.7-1.1 1.2-1z"/></g><g><path d="M277.5 30.9c-.2-.4-.5-.8-.3-1.2.1-.4.2-.7.4-1.1.3-.7.7-1.4 1.1-2 .9-1.2 2.1-2.2 3.5-2.8 1.4-.6 3.1-.8 4.6-.4 1.5.4 2.8 1.3 3.9 2.3 2.1 2.2 3.2 5.1 3.5 8.1.3 2.9-.4 6.1-2.3 8.3 1.2-2.6 1.5-5.5 1.2-8.2-.2-2.7-1.3-5.5-3.2-7.4-.9-1-2.1-1.7-3.4-2-1.3-.3-2.6-.2-3.8.4-2.4 1.1-4.3 3.5-4.6 6.2l-.6-.2z"/></g></g><g><path fill="#E6EFFC" d="M306.7 42.4c.6.5 1.9 2 2 2.1.1.4-.5.4-.6.4-.1 0 .2.9.3 1.4.1.5.3 1 0 1s-.2-.2-.4-.4-.1.3-.3.6c-.1.3-.4 1-.5.8-.2-.3.2-1.6-.4-2.2-.6-.7-.1-3.7-.1-3.7z"/><path fill="#9CBDDB" d="M307.3 44.5c.3.1.5.1.7 0 .1 0 .2-.1.3-.1l.1-.1v.1c0 .1 0 0 0 0s-.3-.2-.5-.3c-.3-.1-.5-.3-.7-.6-.2-.2-.4-.6-.4-.8l-.3-.8c-.2-.5-.3-1.1-.4-1.7l.9-.1c.1.5.2 1 .4 1.5l.3.8c.1.3.1.4.3.6.1.2.3.3.5.5l.3.2c.1.1.3.2.4.5v.2c0 .1-.1.2-.1.2s-.1 0-.1.1c-.1.1-.2.1-.3.1-.2.1-.3.1-.5.1-.5 0-.8-.1-.9-.4z"/><path fill="#9CBDDB" d="M308.2 44.6c.3.6.6 1.3.6 2.1 0 .2 0 .4-.1.6 0 .1-.1.2-.2.3 0 0-.1.1-.2.1s-.1 0-.2-.1l-.1-.1c-.1-.1-.1-.1-.1-.2-.2-.3-.3-.7-.4-1l.4-.1c0 .3-.1.7-.1 1.1 0 .2-.1.4-.2.6-.1.2-.3.4-.5.5-.1 0-.1.1-.3-.1-.1-.2 0-.2 0-.3l.1-.2c.1-.2.1-.3.2-.5.1-.3 0-.7-.1-1 .2.3.4.6.4 1 0 .2 0 .4-.1.6l-.1.2s0 .1 0 0c-.2-.1-.1 0-.1-.1.2 0 .3-.4.4-.7.1-.3.1-.7.1-1v-.8l.4.7c.2.3.3.7.4.9v.1h-.1c-.1 0-.2.1-.2.1s0-.1.1-.1v-.4c-.1-.6-.4-1.2-.6-1.8l.6-.4z"/></g><g><path fill="#E6EFFC" d="M296.9 43.1c3.1-.9 6.8-.2 7.4-.1 2.3.8-.9 7.1-5.9 7.7-2.4.3-3.9-.2-5.3-2.7l3.8-4.9z"/><path fill="#9CBDDB" d="M296.9 43.1c2-.9 4.2-1 6.4-.7.3 0 .5.1.8.2.3.1.7.2.9.5.5.6.5 1.3.4 1.9-.2 1.2-.8 2.1-1.5 3-1.4 1.7-3.4 3.1-5.6 3.3-1.1.1-2.3.1-3.3-.5-1.1-.6-1.8-1.5-2.3-2.5l.8-.4c.5.9 1.1 1.7 1.9 2.1.8.4 1.8.5 2.8.4 2-.2 3.8-1.4 5-3 .6-.8 1.1-1.7 1.3-2.6.1-.5 0-.9-.2-1.1-.2-.2-.7-.3-1.2-.3-2-.5-4.1-.5-6.2-.3z"/><path fill="#9CBDDB" d="M294.8 47.6c-.7.2-1.3.3-1.8.6s-1 .7-1.5 1.2c.1-.7.6-1.4 1.2-1.7.7-.4 1.5-.4 2.1-.1zM296.9 43.9c.3 0 .5.1.8.2.2.1.5.3.7.7.1.3-.1.8-.4 1-.3.2-.6.3-.8.3.2-.1.4-.3.5-.5.1-.2.1-.4.1-.7-.2-.3-.5-.7-.9-1z"/></g></g><g clip-path="url(#g)"><path fill="#3DA9FF" d="M262.6 66.3c2.6-1.3 4.5-2.5 4.5-5.7s-2.9-38.2-2.9-38.2l.4-6.6c-4.2.4-8.5 10.8-7 19.9 1.1-2 1.8-2.3 1.8-2.3-.6 4.6-.8 12 2 18.5 2.4 5.2 2.4 12.3 1.2 14.4z"/><path fill="#94D4FF" d="M264.3 20.9c-2.9 3.3-3 6.9-3.1 8.9.4-.7 1-1.3 1.6-1.4-3.6 15.8 5.1 22.4 2.4 36.7 3.7-3.1 5-7.4 4.5-12.1 1.5.3 2.6.3 2.6.3-3.2-4-4.4-8.6-4.1-12.5 0 0 2.1.9 3.7 1.2-3-4.8-3.6-7.1-4-11.4l-3.6-9.7z"/><path fill="#2864BC" d="M268.5 29.3c-.1 1.1 0 2.2.2 3.3.2 1.1.4 2.2.8 3.2.7 2.1 1.6 4.2 2.9 5.9l.7.9-1.1-.2c-.6-.1-1.2-.2-1.8-.4-.6-.2-1.2-.5-1.7-.9-1.1-.7-1.8-1.7-2.3-2.8.8 1 1.7 1.7 2.7 2.2 1 .5 2.1.8 3.3 1l-.4.7c-1.5-1.8-2.4-4-3.1-6.2-.3-1.1-.6-2.2-.8-3.4-.2-1.1-.3-2.3-.2-3.5l.8.2z"/><path fill="#2864BC" d="M268.7 40.5c-.6 4.5 1.2 9.1 4.1 12.5l.5.6-.8.1c-.7.1-1.5.1-2.2-.1-.7-.2-1.4-.5-2-1-.6-.4-1.1-1-1.5-1.5-.4-.6-.7-1.2-1-1.8.4.6.8 1.1 1.3 1.6s1 .9 1.6 1.2c1.1.7 2.4.9 3.7.8l-.3.7c-1.6-1.8-2.8-3.9-3.5-6.1-.8-2.2-1.1-4.7-.7-7h.8z"/><path fill="none" stroke="#2864BC" stroke-width=".873" stroke-miterlimit="20" d="M269.8 53c.9 4.3-1.6 11.6-7.2 13.4 2.3-5.5-.7-12.9-2.2-17.1-1.7-4.7-1.9-12.8-.6-16.1-1 .7-1.7 1.6-2.1 2.7-1.3-7.3 1-17.9 7.2-20.6"/></g><g clip-path="url(#g)"><path fill="#3DA9FF" d="M276.8 16.8c1.7 3.8 6.6 5.2 8.1 5.3-.5-.7-.9-1.5-.9-1.5 8.3-.6 20 4.9 26.1 14.3 2.3-5.3-1.3-15.6-2.9-17.2 2.7.6 7.5 3 10 5.4-.8-8.3-5.4-14.1-12.9-17.7-6.5-2.9-15.3-.9-16.9-.6.8-2 3.3-3.2 3.3-3.2-8.2-1.6-15.2 2.7-17.4 5.1"/><path fill="#94D4FF" d="M275 9.1c7.7-2.7 19.1-2 29.7 6.2 6.3 4.9 7 16.4 5.4 19.7-2.5-7.1-7.1-14.2-12-17.9.7 1.4.9 2.3 1.1 3.1-2.3-2.8-7-5.1-10.8-5.9 1.4 1 1.9 1.6 2.3 2.2-1.8-1.2-9.7-1.7-14.2-.2"/><path fill="#2864BC" d="M277.1 16.4c.7 1.5 2 2.8 3.4 3.7 1.4 1 3.1 1.6 4.8 1.8l-.4.7c-.5-.6-1-1.3-1.3-2-.3-.7-.5-1.5-.5-2.3.3.7.6 1.4 1 2 .4.6.9 1.2 1.4 1.7l1 .9-1.3-.2c-1.9-.2-3.6-.9-5.2-1.9-.8-.5-1.5-1.1-2.1-1.8-.6-.7-1.2-1.5-1.6-2.4l.8-.2z"/><path fill="#2864BC" d="M284 20.2c5.3-.2 10.5 1.4 15 3.9 4.6 2.6 8.5 6.2 11.5 10.5l-.8.1c.5-1.6.6-3.4.5-5.2-.1-1.8-.3-3.5-.7-5.2-.4-1.7-1-3.4-1.9-4.9-.8-1.5-1.7-3.1-3-4.3 1.5.9 2.8 2.3 3.8 3.9.9 1.6 1.5 3.3 1.9 5.1.4 1.8.7 3.6.7 5.4 0 1.8-.1 3.6-.6 5.4l-.2.9-.5-.8c-2.9-4.2-6.8-7.7-11.2-10.2-4.4-2.5-9.5-4-14.6-3.8l.1-.8z"/><path fill="#265299" d="M307 17.2c1.9.5 3.8 1.2 5.6 2.1 1.8.9 3.4 2.1 4.8 3.5l-.8.3c-.2-3.5-1.4-6.8-3.3-9.7-1.9-2.9-4.6-5.3-7.7-6.9-3.1-1.6-6.6-2.3-10-2.4-3.5-.1-7 .5-10.4 1.3 3.3-1.4 6.8-2.1 10.4-2.1 3.6 0 7.2.8 10.4 2.5 3.2 1.6 6 4.1 8 7.2 2 3 3.2 6.5 3.4 10.2l.1 1.1-.8-.8c-1.3-1.4-2.9-2.5-4.6-3.4-.9-.4-1.7-.8-2.6-1.2-.5-.2-.9-.3-1.4-.5-.2-.1-.5-.1-.7-.2l-.6-.6.2-.4z"/><path fill="#265299" d="M273.1 6.4c2.2-2.4 5.2-3.9 8.3-4.7 3.1-.9 6.4-.9 9.5-.5l1.7.2-1.6.5c-.7.3-1.4.7-1.9 1.3-.3.3-.5.6-.7.9-.1.2-.2.3-.3.5-.2.1-.4.3-.6.4l-.5-.2c.6-1.7 2-3 3.7-3.7l.1.8c-3.1-.4-6.2-.3-9.2.5-2.9.8-5.8 2.3-7.9 4.5l-.6-.5z"/></g><g clip-path="url(#g)"><defs><filter id="p" filterUnits="userSpaceOnUse" x="293.7" y="3.6" width="10.4" height="17.8"><feColorMatrix values="1 0 0 0 0 0 1 0 0 0 0 0 1 0 0 0 0 0 1 0"/></filter></defs><mask maskUnits="userSpaceOnUse" x="293.7" y="3.6" width="10.4" height="17.8" id="q"><g filter="url(#p)"><path fill="#FFF" d="M293.9 14c1.6-3.5 7.5-11.6 9.8-10.8 2.2.8-1.1 12.7-2.2 14.7-.1 0-4.2-3.3-7.6-3.9z"/></g></mask><g mask="url(#q)"><path fill="#E6EFFC" d="M293.7 17.3c-.1 3.8 4.2 4.1 4.7 3.4 2.8-3.5 6.2-16.1 4.9-16.6-1.1-.5-5.8 5.7-8.9 10.7"/><path fill="#9CBDDB" d="M293.7 17.3c.2 1.6 1.3 2.9 2.8 3.2.4.1.7.1 1.1.1.2 0 .3 0 .5-.1.1 0 .1-.1.1-.1l.2-.2c.4-.6.8-1.3 1.2-2 1.3-2.9 2.3-6 3.1-9.1.2-.8.3-1.6.5-2.3.1-.8.2-1.6.1-2.2v-.1l.1.1s-.2.1-.3.2c-.3.2-.6.5-.9.7-.6.5-1.1 1.1-1.6 1.8-2.1 2.5-4 5.1-5.7 7.8l-.6-.4c1.8-2.7 3.6-5.4 5.6-8 .5-.6 1.1-1.3 1.6-1.8.3-.3.6-.6 1-.8.2-.1.4-.3.8-.3.2 0 .5.1.6.3.1.2.2.3.2.4.2 1 0 1.8-.1 2.6s-.3 1.6-.5 2.4c-.8 3.2-1.7 6.3-3.2 9.3-.4.7-.7 1.5-1.2 2.2-.1.1-.1.2-.2.3-.1.2-.3.2-.4.3-.3.1-.5.1-.7.1-.5 0-.9 0-1.3-.2-.8-.2-1.6-.7-2.1-1.5-.7-1-.8-1.9-.7-2.7z"/><path fill="none" stroke="#9CBDDB" stroke-width=".655" d="M300.4 6.3c-.1 1.6 1 3.4 2.5 3.5M298.4 9c-.1 1.6 1.1 4.1 3.3 4.6"/></g><path fill="#2864BC" d="M301.6 18.3c-1.3-.9-2.6-1.7-3.9-2.4-.7-.4-1.3-.7-2-1-.7-.3-1.4-.6-2.1-.8.8-.1 1.6.1 2.3.3.7.2 1.5.6 2.2.9 1.3.8 2.6 1.7 3.5 3z"/></g><g clip-path="url(#g)"><path fill="#E6EFFC" d="M276.8 18.7c.7-10.7-5.2-15.1-6.8-13-5.5 7.3-8.8 18.4-.6 24.8 0 .1 2.5-7.8 7.4-11.8z"/><path fill="#C3CFE0" d="M270 23.7c-.5-3.6-.3-11.2.9-13s2.2-1.7 2.7 1.4c.2 1.2.6 4.3.6 6.2-1.4.5-3.4 3.5-4.2 5.4z"/><path fill="#9CBDDB" d="M269.5 30.5c-1.6-.9-3.1-2.2-4-3.9-.9-1.7-1.4-3.6-1.6-5.5-.3-3.8.7-7.6 2.4-11 .4-.8.9-1.7 1.5-2.4.6-.8 1.2-1.5 2-2.1.9-.7 2.2-.5 3.1 0 .9.5 1.5 1.3 2 2.2 1 1.7 1.5 3.5 1.9 5.4.4 1.8.5 3.8.1 5.6-.4-1.8-.6-3.7-.9-5.5-.3-1.8-.9-3.6-1.8-5.1-.5-.8-1-1.4-1.7-1.9-.3-.2-.7-.3-1.1-.4-.2 0-.4 0-.6.1-.1 0-.3.1-.5.2-.7.5-1.3 1.2-1.8 1.9s-1 1.5-1.4 2.3c-1.6 3.2-2.6 6.9-2.3 10.5.1 1.8.6 3.6 1.5 5.1.7 1.8 1.8 3.2 3.2 4.5z"/><path fill="#9CBDDB" d="M270 23.7c-.5-1.5-.7-3-.7-4.5-.1-1.5.1-3.1.3-4.6.3-1.5.7-3 1.3-4.5.2-.4.5-.8 1-.9.3-.1.6-.1.8.1.2.1.4.3.5.5.4.7.4 1.5.5 2.3-.2-.7-.4-1.5-.8-2.1-.2-.3-.5-.4-.7-.3-.3.1-.5.4-.6.7-.6 1.3-.9 2.8-1.2 4.3-.3 1.5-.4 3-.5 4.5-.2 1.5 0 3 .1 4.5z"/></g></g><g><path fill="#FFF" d="M213.3 12.5c-1.4-.8-2.7-1.2-3.9-1.2-2 0-3.9.9-5.9 2.8-2 1.9-3 4.4-3 7.7 0 4.2 2.1 9.3 6.4 15.3 4.2 6 6.4 10.6 6.4 13.8 0 2.6-.8 4.7-2.4 6.4-1.6 1.7-4 2.5-7 2.5-5.1-.7-7.7-2.2-7.7-4.7 0-.6.2-1.6.6-2.9.4-1.3.9-2 1.4-2 .3 0 .6.4.9 1.3.4 2.1 1.2 3.3 2.3 3.8 1.1.5 2.6.7 4.4.7 1.3 0 2.4-.5 3.1-1.4s1-1.8 1-2.7c0-2-2.4-6.5-7.3-13.4s-7.3-12.6-7.3-17.1c0-3.3 1.5-6.5 4.4-9.4 3-2.9 6.1-4.4 9.4-4.4 2.5 0 4.9.9 7.3 2.7 2.3 1.8 3.5 3 3.5 3.5 0 .2-.2.3-.6.3-.1 0-.3 0-.4-.1-2.4-.1-4.2-.6-5.6-1.5zM228.8 44c3.5-2 5.3-4 5.4-6 0-1.2-.6-1.8-1.9-1.8-2.5 0-4.9 1.1-7.1 3.4-2.2 2.3-3.3 5.4-3.3 9.4 0 2.2.8 4 2.4 5.4 1.6 1.4 3.6 2.1 6.1 2.1 3.6-.2 6.9-1.3 9.7-3.1.9-.7 1.3-1 1.5-1 .1 0 .2.1.2.4 0 .2-.4.9-1.2 2-.8 1.1-2.3 2.2-4.3 3.4-2 1.2-4.6 1.7-7.8 1.7-3 0-5.5-.9-7.7-2.6-2.1-1.7-3.3-4.4-3.6-8 0-4.9 1.5-8.7 4.5-11.5 3-2.8 6.8-4.1 11.4-4.1 1.5 0 2.8.3 3.8 1s1.5 1.7 1.5 3.1c-.3 2.2-1.5 4.2-3.6 5.9-2.2 1.8-4.9 3.1-8.2 4.1-2 .5-3.3.7-3.9.7-.3 0-.5-.1-.5-.3 0-.1.1-.3.3-.5.7-.4 2.8-1.7 6.3-3.7zm16.4-3.1c.5-2.1 1.3-3.2 2.4-3.2h2.7c.7 0 1 .9 1 2.7-.2 5.4-.5 9.7-.8 13.1-.3 3.4-.8 5.1-1.5 5.1s-1.4-.2-2.1-.7c-.5-.2-.7-2.5-.7-6.8 0-2.2.1-6.2.3-11.8l-1.3 1.6zm2.1-13.6c.6-.6 1.3-1 2-1 .6 0 1.2.3 2 .8.7.5 1.1 1.1 1.1 1.7 0 .5-.3 1.1-.9 1.8s-1.3 1-2 1c-.6 0-1.2-.3-2-.8-.7-.5-1.1-1.1-1.1-1.8 0-.5.3-1.1.9-1.7z"/></g><path fill="#FFF" d="M43.9 28.4H20.1v-7.1c2.4-9.5 11.9-9.7 11.9-9.7s9.5.1 11.9 9.7v7.1zM32 2.7s-17.3-.6-20.9 18.6v13.1s.1 1.4 4.1 4.2c3.9 2.8 14.1 10.9 16.8 10.9 2.7 0 12.9-8 16.8-10.9 3.9-2.8 4.1-4.2 4.1-4.2V21.3C49.3 2.1 32 2.7 32 2.7m0 49.7s-2.7-.3-4.8-1.7L11.1 39.2V59s.1 2.3 2.7 2.3h36.4c2.5 0 2.7-2.3 2.7-2.3V39.2L36.8 50.7c-2.1 1.5-4.8 1.7-4.8 1.7M137.1 36.8h4.4l-.2 19.6h29.3V37h4.6v24.3H137l.1-24.5zm7.2 11.6h22.9v4.9h-22.9v-4.9zm.5-8.8l23 2.2-.5 5-23-2.2.5-5zm2.1-9.9l22.2 6.3-1.4 4.8-22.2-6.3 1.4-4.8zm5.4-11.2L172 30.4l-2.6 4.3-19.7-11.9 2.6-4.3zm11.3-10.7L177 26.6l-4.1 2.9-13.4-18.8 4.1-2.9zm15.6-5l3.8 22.8-4.9.8-3.8-22.8 4.9-.8z"/><path fill-rule="evenodd" clip-rule="evenodd" fill="#FFF" d="M96 0C78.3 0 64 14.3 64 32c0 14.1 9.2 26.1 21.9 30.4 1.6.3 2.2-.7 2.2-1.5v-5.4c-8.9 1.9-10.8-4.3-10.8-4.3-1.5-3.7-3.6-4.7-3.6-4.7-2.9-2 .2-1.9.2-1.9 3.2.2 4.9 3.3 4.9 3.3 2.9 4.9 7.5 3.5 9.3 2.7.3-2.1 1.1-3.5 2-4.3-7.1-.8-14.6-3.6-14.6-15.8 0-3.5 1.2-6.3 3.3-8.6-.3-.8-1.4-4.1.3-8.5 0 0 2.7-.9 8.8 3.3 2.6-.7 5.3-1.1 8-1.1s5.5.4 8 1.1c6.1-4.1 8.8-3.3 8.8-3.3 1.7 4.4.6 7.7.3 8.5 2.1 2.2 3.3 5.1 3.3 8.6 0 12.3-7.5 15-14.6 15.8 1.1 1 2.2 2.9 2.2 5.9V61c0 .9.6 1.9 2.2 1.5C118.8 58.1 128 46.1 128 32c0-17.7-14.3-32-32-32z"/></svg>