<svg xmlns="http://www.w3.org/2000/svg" xml:space="preserve" style="fill-rule:evenodd;clip-rule:evenodd;stroke-miterlimit:10" viewBox="0 0 576 64"><circle cx=".5" r=".5" style="fill:url(#a)" transform="matrix(0 40.1497 40.1497 0 479.711 11.926)"/><path d="M0-41.012c-5.478-5.478-12.76-8.494-20.506-8.494s-15.029 3.016-20.506 8.494l5.367 5.368a21.275 21.275 0 0 1 15.139-6.271 21.275 21.275 0 0 1 15.138 6.271 21.274 21.274 0 0 1 6.27 15.138 21.27 21.27 0 0 1-6.27 15.138A21.274 21.274 0 0 1-20.506.902a21.258 21.258 0 0 1-11.962-3.648l7.028-3.164-20.269-14.596-2.509 24.852L-40.231.75c5.379 5.001 12.34 7.744 19.725 7.744C-12.76 8.494-5.478 5.477 0 0c5.478-5.478 8.494-12.76 8.494-20.506S5.478-35.535 0-41.012Z" style="fill:none;fill-rule:nonzero;stroke:#000;stroke-width:5.82px" transform="translate(500.218 52.506)"/><clipPath id="b"><path d="m459.206 11.494 5.367 5.368a21.283 21.283 0 0 1 15.139-6.271 21.28 21.28 0 0 1 15.138 6.271A21.28 21.28 0 0 1 501.12 32a21.276 21.276 0 0 1-6.27 15.138 21.28 21.28 0 0 1-15.138 6.27 21.258 21.258 0 0 1-11.962-3.648l7.027-3.164L454.509 32 452 56.852l7.986-3.596C465.367 58.257 472.327 61 479.712 61c7.746 0 15.028-3.016 20.506-8.494 5.478-5.477 8.493-12.76 8.493-20.506s-3.015-15.029-8.493-20.506S487.458 3 479.712 3c-7.747 0-15.029 3.017-20.506 8.494Z"/></clipPath><g clip-path="url(#b)"><path d="M-50.896 43.93h46.169l22.722-23.081L-5.451-2.233-50.896 43.93Z" style="fill:#009600;fill-rule:nonzero" transform="scale(-1 1) rotate(-44.552 -256.526 617.105)"/><path d="M-48.585-16.194h32.391l32.388-32.391h-64.779v32.391Z" style="fill:#c80000;fill-rule:nonzero" transform="matrix(0 1 1 0 495.906 48.195)"/><path d="M0 33.655-47.403 0l-47.404 33.655H0Z" style="fill:#ffce45;fill-rule:nonzero" transform="translate(527.115 32)"/><path d="M.838.401.726.285A.357.357 0 0 0 .831.036V.023c0-.17-.14-.311-.311-.311l-.022.001a.292.292 0 0 0-.228.09C.204-.13.171-.086.171.008c0 .072-.006.116.034.173L.263.089l.28.38-.494.059.068-.161a.518.518 0 0 1 .38-.84.509.509 0 0 1 .5.508.567.567 0 0 1-.159.366Z" style="fill:url(#c);fill-rule:nonzero" transform="scale(-60.81423 60.81423) rotate(-89.701 -3.449 4.497)"/></g><path d="M0 52.267V27.733h9.334L-21.6 0l-30.667 27.733h9.334v24.534H0Z" style="fill:#c8c8c8;fill-rule:nonzero" transform="translate(437.333 5.867)"/><path d="m0 12.267-9.066-5.066v9.866L0 12.267Zm9.067-6.133v12.267c0 1.866-1.334 2.932-2.933 2.932h-24.533c-1.868 0-2.934-1.333-2.934-2.932V6.134c0-1.867 1.333-3.2 2.934-3.2H6.134c1.866 0 2.933 1.6 2.933 3.2m-6.133-15.2h-18.133v2.933H3.2c-.266 0-.266-2.933-.266-2.933M6.134 0h-24.533v-2.933H6.134V0Z" style="fill:#7f0000;fill-rule:nonzero" transform="translate(421.866 28.533)"/><path d="M0-13.089c.586-.635 1.258-.953 2.017-.953.586 0 1.24.251 1.961.751.721.502 1.082 1.07 1.082 1.705 0 .538-.294 1.137-.88 1.797-.587.659-1.26.99-2.017.99-.586 0-1.241-.269-1.961-.807-.722-.537-1.082-1.136-1.082-1.796 0-.489.294-1.051.88-1.687M-2.053.476C-1.516-1.65-.728-2.719.312-2.732 1.35-2.744 2.26-2.75 3.043-2.75c.66 0 .99.916.99 2.749-.196 5.354-.458 9.716-.788 13.089-.33 3.373-.825 5.06-1.485 5.06v-.037c-.66 0-1.369-.22-2.127-.659-.489-.245-.733-2.518-.733-6.82 0-2.249.098-6.196.293-11.843L-2.053.476Zm-16.388 3.099c3.519-2.017 5.303-4.002 5.353-5.958 0-1.173-.624-1.76-1.87-1.76-2.518 0-4.871 1.142-7.058 3.428-2.188 2.286-3.281 5.432-3.281 9.441 0 2.199.8 4.009 2.401 5.426 1.601 1.418 3.648 2.126 6.141 2.126 3.617-.22 6.856-1.259 9.716-3.117.855-.66 1.344-.989 1.466-.989.147 0 .22.134.22.403 0 .22-.416.88-1.246 1.98-.832 1.1-2.268 2.231-4.308 3.391-2.041 1.161-4.638 1.742-7.791 1.742-2.982 0-5.536-.867-7.662-2.604-2.127-1.735-3.337-4.399-3.63-7.992 0-4.889 1.49-8.713 4.473-11.475 2.981-2.762 6.77-4.143 11.365-4.143 1.515 0 2.768.348 3.758 1.045.99.696 1.485 1.717 1.485 3.061-.269 2.2-1.479 4.179-3.63 5.939-2.151 1.76-4.876 3.142-8.175 4.143-2.005.49-3.3.734-3.887.734-.342 0-.513-.086-.513-.257 0-.122.085-.294.257-.514.757-.683 2.896-2.034 6.416-4.05m-15.49-31.421c-1.406-.818-2.72-1.228-3.942-1.228-1.955 0-3.922.929-5.902 2.787-1.98 1.857-2.97 4.436-2.97 7.736 0 4.179 2.12 9.269 6.361 15.269 4.24 6.001 6.361 10.59 6.361 13.768 0 2.566-.813 4.686-2.438 6.36-1.626 1.675-3.966 2.512-7.021 2.512-5.133-.66-7.699-2.212-7.699-4.656 0-.587.202-1.552.605-2.897.403-1.344.861-2.017 1.375-2.017.317 0 .61.441.88 1.321.39 2.052 1.154 3.317 2.291 3.794 1.136.476 2.596.716 4.381.716 1.344 0 2.365-.459 3.062-1.375.696-.917 1.045-1.816 1.045-2.696 0-2.028-2.427-6.508-7.278-13.436-4.852-6.93-7.278-12.631-7.278-17.103 0-3.324 1.479-6.453 4.436-9.386 2.957-2.933 6.086-4.4 9.386-4.4 2.493 0 4.913.893 7.259 2.677 2.347 1.784 3.52 2.957 3.52 3.519 0 .22-.208.33-.623.33-.123 0-.257-.024-.403-.073-2.2-.196-4.003-.703-5.408-1.522" style="fill:#fff;fill-rule:nonzero" transform="translate(247.252 40.388)"/><path d="M0 41.414s-2.684-.263-4.785-1.722c-2.101-1.458-16.107-11.466-16.107-11.466v19.811s.119 2.305 2.658 2.305h36.468c2.539 0 2.658-2.305 2.658-2.305V28.226S6.886 38.234 4.785 39.692C2.684 41.151 0 41.414 0 41.414M0-8.359s-17.32-.569-20.892 18.643v13.085s.148 1.4 4.087 4.245C-12.867 30.459-2.669 38.468 0 38.468c2.669 0 12.867-8.009 16.805-10.854 3.939-2.845 4.087-4.245 4.087-4.245V10.284C17.319-8.928 0-8.359 0-8.359m11.86 25.776h-23.72v-7.133C-9.453.743 0 .612 0 .612s9.453.131 11.86 9.672v7.133Z" style="fill:#fff;fill-rule:nonzero" transform="translate(31.992 11.01)"/><path d="m0-58.498 3.801 22.751-4.935.825-3.802-22.751L0-58.498ZM-15.606-53.4l13.434 18.751-4.068 2.914-13.434-18.751 4.068-2.914Zm-11.232 10.634L-7.093-30.84l-2.587 4.283-19.745-11.925 2.587-4.284Zm-5.381 11.229 22.2 6.266-1.359 4.816-22.2-6.266 1.359-4.816Zm-2.1 9.936 22.96 2.216-.481 4.982-22.96-2.216.481-4.982Zm-.538 8.786h22.945v4.883h-22.945v-4.883Zm-7.177-11.586 4.401.043-.154 19.598h29.292v-19.527h4.638V0h-38.201l.024-24.401Z" style="fill:#fff;fill-rule:nonzero" transform="translate(179.167 61.249)"/><path d="M0-62.674c-17.669 0-31.998 14.327-31.998 32.002 0 14.137 9.168 26.131 21.885 30.362 1.6.294 2.184-.694 2.184-1.542 0-.759-.028-2.772-.043-5.442-8.902 1.933-10.779-4.29-10.779-4.29-1.456-3.696-3.554-4.681-3.554-4.681-2.905-1.985.221-1.945.221-1.945 3.21.226 4.901 3.298 4.901 3.298 2.854 4.889 7.489 3.477 9.313 2.659.29-2.068 1.117-3.479 2.031-4.278-7.105-.808-14.576-3.553-14.576-15.816 0-3.493 1.247-6.35 3.294-8.587-.329-.809-1.427-4.063.314-8.469 0 0 2.686-.86 8.8 3.281 2.552-.71 5.289-1.065 8.011-1.077 2.717.012 5.455.367 8.011 1.077 6.11-4.141 8.791-3.281 8.791-3.281 1.746 4.406.648 7.66.319 8.469 2.05 2.237 3.289 5.094 3.289 8.587 0 12.293-7.482 14.998-14.611 15.79 1.149.988 2.173 2.942 2.173 5.927 0 4.277-.039 7.728-.039 8.778 0 .856.576 1.852 2.2 1.539 12.704-4.24 21.865-16.226 21.865-30.359 0-17.675-14.329-32.002-32.002-32.002" style="fill:#fff" transform="translate(95.998 62.674)"/><path d="M122.732 122.728h-21.648V85.165c0-11.082-4.712-14.5-10.789-14.5-6.423 0-12.721 4.834-12.721 14.777v37.286H55.925V53.955h20.819v9.529h.277c2.095-4.234 9.407-11.462 20.577-11.462 12.08 0 25.134 7.165 25.134 28.172v42.534ZM32.095 44.373c-6.893 0-12.481-5.247-12.481-12.427 0-7.179 5.588-12.432 12.481-12.432 6.894 0 12.482 5.253 12.482 12.432 0 7.18-5.588 12.427-12.482 12.427Zm10.825 78.303H21.271V53.902H42.92v68.774ZM133.374.001H10.63C4.759.001 0 4.76 0 10.631V133.37C0 139.241 4.759 144 10.63 144h122.744c5.871 0 10.63-4.759 10.63-10.63V10.631c0-5.871-4.759-10.63-10.63-10.63Z" style="fill:#fff;fill-rule:nonzero" transform="translate(512) scale(.44443)"/><defs><linearGradient id="a" x1="0" x2="1" y1="0" y2="0" gradientTransform="rotate(90 .5 0)" gradientUnits="userSpaceOnUse"><stop offset="0" style="stop-color:#4a8af4;stop-opacity:0"/><stop offset=".08" style="stop-color:#4a8af4;stop-opacity:0"/><stop offset="1" style="stop-color:#4a8af4;stop-opacity:1"/></linearGradient><linearGradient id="c" x1="0" x2="1" y1="0" y2="0" gradientTransform="translate(0 .037)" gradientUnits="userSpaceOnUse"><stop offset="0" style="stop-color:white;stop-opacity:0"/><stop offset="1" style="stop-color:white;stop-opacity:.6"/></linearGradient></defs></svg>