<svg xmlns="http://www.w3.org/2000/svg" viewBox="0 0 130 32"><path d="M29.8 2.3c-.5-.3-1.1-.5-1.5-.5-.8 0-1.5.4-2.3 1.1s-1.1 1.7-1.1 3c0 1.6.8 3.6 2.5 5.9 1.6 2.3 2.5 4.1 2.5 5.3 0 1-.3 1.8-.9 2.5-.6.6-1.5 1-2.7 1-2-.3-3-.9-3-1.8 0-.2.1-.6.2-1.1.2-.5.3-.8.5-.8.1 0 .2.2.3.5.2.8.4 1.3.9 1.5.4.2 1 .3 1.7.3.5 0 .9-.2 1.2-.5.3-.4.4-.7.4-1 0-.8-.9-2.5-2.8-5.2s-2.8-4.9-2.8-6.6c0-1.3.6-2.5 1.7-3.6S27 .6 28.2.6c1 0 1.9.3 2.8 1s1.4 1.1 1.4 1.4c0 .1-.1.1-.2.1H32c-1-.3-1.7-.5-2.2-.8zm6 12.1c1.4-.8 2-1.5 2.1-2.3 0-.5-.2-.7-.7-.7-1 0-1.9.4-2.7 1.3-.8.9-1.3 2.1-1.3 3.6 0 .8.3 1.5.9 2.1.6.5 1.4.8 2.4.8 1.4-.1 2.6-.5 3.8-1.2.3-.3.5-.4.6-.4.1 0 .1.1.1.2s-.2.3-.5.8c-.3.4-.9.9-1.7 1.3-.8.4-1.8.7-3 .7s-2.1-.3-3-1-1.3-1.7-1.4-3.1c0-1.9.6-3.4 1.7-4.4s2.6-1.6 4.4-1.6c.6 0 1.1.1 1.5.4.4.3.6.7.6 1.2-.1.8-.6 1.6-1.4 2.3S36.3 15.6 35 16c-.8.2-1.3.3-1.5.3-.1 0-.2 0-.2-.1 0 0 0-.1.1-.2.2-.3 1-.8 2.4-1.6zm6.3-1.2c.2-.8.5-1.2.9-1.2h1.1c.3 0 .4.4.4 1.1-.1 2.1-.2 3.8-.3 5.1-.1 1.3-.3 2-.6 2s-.5-.1-.8-.3c-.2-.1-.3-1-.3-2.6 0-.9 0-2.4.1-4.6l-.5.5zm.8-5.2c.2-.2.5-.4.8-.4.2 0 .5.1.8.3.3.2.4.4.4.7 0 .2-.1.4-.3.7s-.6.4-.9.4c-.2 0-.5-.1-.8-.3-.3-.2-.4-.4-.4-.7 0-.2.2-.5.4-.7zm4.4 11.7c-.2-.2-.2-1.1-.2-2.7 0-1.8 0-3.1.1-3.8.1-.7.2-1.4.2-2s.4-.9.9-.9.8.2.9.7c-.2 1.5-.3 2.8-.3 3.7-.1.9-.1 1.7-.1 2.2.1 0 .4-.6.9-1.8.9-1.6 1.9-2.4 2.9-2.4.9 0 1.5.3 2 1s.7 1.7.8 3.1c0 .8-.1 1.7-.2 2.5s-.3 1.2-.6 1.3c-.4 0-.6-.2-.6-.7v-1.4c0-.6-.1-1.4-.2-2.4s-.5-1.6-1.2-1.7c-.6 0-1.3.9-2.1 2.8S48.8 20 47.9 20c-.2 0-.4-.1-.6-.3zm11-6.9c.5-1.7 1.5-2.6 2.9-2.6 1.8.1 3 .7 3.8 2s1.2 2.5 1.2 3.6c0 1-.5 2.1-1.5 3.1-1 1.2-2.2 1.8-3.6 1.8-1.2-.1-2.1-.4-2.7-1s-.9-1.5-.9-2.5c0-1.2.3-2.7.8-4.4zm5 .2c-.8-.8-1.4-1.2-1.9-1.2-.6 0-1.1.6-1.5 1.8-.4 1.2-.6 2.2-.6 3 0 .8.2 1.5.5 1.9.3.4.7.6 1.2.6.7 0 1.5-.4 2.3-1.1.8-.8 1.2-1.6 1.2-2.4 0-1-.4-1.9-1.2-2.6zm4.6 1.2c-.1-.2-.2-.5-.2-.7 0-.6.4-1.1 1.2-1.5 1-.6 2.1-.9 3.1-.9 1.6 0 2.7.2 3.3.7s.9 1.2 1 2.2c0 1.5-.5 2.8-1.4 3.9s-2.4 2.1-4.4 3.2l-.6 7.9c-.3 0-.5-.4-.8-1.3-.3-.9-.4-1.5-.4-2 .1-4.2.3-8.3.5-12.3l-1.3.8zm3-1.4l-.4 6.3c1.7-.8 2.8-1.6 3.3-2.5.6-.9.8-1.8.8-2.9 0-.7-.6-1.1-1.8-1.2-.7 0-1.3.1-1.9.3zM85.6 2.3c-.6-.3-1.1-.5-1.6-.5-.8 0-1.5.4-2.3 1.1s-1.1 1.7-1.1 3c0 1.6.8 3.6 2.5 5.9 1.6 2.3 2.5 4.1 2.5 5.3 0 1-.3 1.8-.9 2.5-.6.6-1.5 1-2.7 1-2-.3-3-.9-3-1.8 0-.2.1-.6.2-1.1s.3-.8.5-.8c.1 0 .2.2.3.5.2.8.4 1.3.9 1.5.4.2 1 .3 1.7.3.5 0 .9-.2 1.2-.5.3-.4.4-.7.4-1 0-.8-.9-2.5-2.8-5.2s-2.8-4.9-2.8-6.6c0-1.3.6-2.5 1.7-3.6S82.7.6 83.9.6c1 0 1.9.3 2.8 1s1.3 1 1.3 1.2c0 .1-.1.1-.2.1h-.2c-.8-.1-1.5-.3-2-.6zm5.2 9.1c-.7.9-1.1 2.1-1.1 3.7 0 .8.1 1.4.4 1.9.3.4.7.7 1.1.7.6 0 1.2-.7 1.8-2 .6-1.3 1.3-2.2 1.9-2.7.6-.5 1.2-.7 1.8-.7.5 0 .9.5 1 1.3s.2 1.7.2 2.5c0 1.3-.3 2.9-.9 4.8-.6 1.9-.9 4.3-.9 7.2 0 1.5.3 2.8.6 3.7-1.7-1.5-2.5-3.3-2.5-5.4.1-1.9.4-3.9 1.1-6.1.7-2.1 1-3.9 1-5.4 0-.4 0-.8-.1-1-1 2.3-1.8 3.8-2.6 4.4-.6.4-1.2.7-1.6.7h-.7c-1.1 0-1.9-.3-2.5-1-.6-.7-.9-1.5-.9-2.6-.1-2.1.9-3.4 2.9-4zm16.1 1.3c.3.4.4.7.4.8 0 .1 0 .1-.1.1s-.4-.2-.8-.6c-.8-.8-1.8-1.1-3-1.1-.9.1-1.4.3-1.4.7 0 .7.7 1.7 2 3.2 1.4 1.4 2 2.6 2 3.6 0 .5-.2.8-.7 1.1-.5.3-1 .5-1.5.5-.4 0-.9-.1-1.6-.4-.7-.3-1.3-.8-1.8-1.6-.2-.4-.3-.7-.3-.9V18c.1 0 .2.1.3.3.5.5 1 .9 1.6 1.1.6.2 1 .2 1.2.2.3 0 .6-.1.8-.3 0-.4-.6-1.3-1.8-2.7-1.2-1.4-2-2.3-2.2-2.9-.2-.6-.3-1-.3-1.3 0-.6.3-1.1.9-1.4s1.2-.5 1.8-.5c.5 0 1.2.1 2.1.4s1.8.7 2.4 1.8z" opacity=".7"/></svg>